<svg width="40" height="40" viewBox="0 0 40 40" fill="none" xmlns="http://www.w3.org/2000/svg">
<g clip-path="url(#clip0_859_353)">
<path d="M20 40C31.0457 40 40 31.0457 40 20C40 8.95431 31.0457 0 20 0C8.95431 0 0 8.95431 0 20C0 31.0457 8.95431 40 20 40Z" fill="#09EA8C"/>
<path d="M18.3899 29.3778C17.7562 29.3778 17.1524 29.1243 16.7052 28.6771L7.40215 19.3741C6.47036 18.4423 6.47036 16.929 7.40215 16.0047C8.33395 15.0729 9.83972 15.0729 10.7715 16.0047L18.3824 23.6156L29.221 12.777C30.1528 11.8452 31.666 11.8452 32.5978 12.777C33.5296 13.7088 33.5296 15.222 32.5978 16.1463L20.0745 28.6696C19.6273 29.1169 19.0235 29.3703 18.3899 29.3703V29.3778Z" fill="white"/>
</g>
<defs>
<clipPath id="clip0_859_353">
<rect width="40" height="40" fill="white"/>
</clipPath>
</defs>
</svg>
