<svg width="30" height="30" viewBox="0 0 30 30" fill="none" xmlns="http://www.w3.org/2000/svg">
<g clip-path="url(#clip0_859_1027)">
<path d="M15 8.03607C15.953 8.03607 16.7256 7.26351 16.7256 6.31052C16.7256 5.35752 15.953 4.58496 15 4.58496C14.047 4.58496 13.2745 5.35752 13.2745 6.31052C13.2745 7.26351 14.047 8.03607 15 8.03607Z" fill="#1A1A1A"/>
<path d="M23.9112 8.19645C23.8496 7.77739 23.4552 7.4939 23.0361 7.55553C23.0361 7.55553 17.3172 8.50458 16.2941 8.64016C15.8997 8.68946 15.4314 8.70179 15 8.70179C14.5686 8.70179 14.1002 8.70179 13.7058 8.64016C12.6828 8.50458 6.96383 7.55553 6.96383 7.55553C6.54476 7.4939 6.15035 7.77739 6.08872 8.19645C6.0271 8.59086 6.2736 8.96062 6.64336 9.05923L12.9663 10.7478L12.7444 15.678L10.3903 25.0453C10.267 25.5136 10.5628 25.9943 11.0312 26.1176C11.4749 26.2285 11.931 25.9697 12.0789 25.5383L15 16.8858L17.9211 25.5383C18.069 25.9697 18.525 26.2285 18.9688 26.1176C19.4371 25.9943 19.7329 25.5136 19.6097 25.0453L17.2555 15.678L17.0337 10.7478L23.3566 9.05923C23.7264 8.96062 23.9729 8.59086 23.9112 8.19645Z" fill="#1A1A1A"/>
<path d="M15 28.7673C22.6036 28.7673 28.7675 22.6034 28.7675 14.9999C28.7675 7.39632 22.6036 1.23242 15 1.23242C7.39645 1.23242 1.23254 7.39632 1.23254 14.9999C1.23254 22.6034 7.39645 28.7673 15 28.7673Z" stroke="#1A1A1A" stroke-width="2" stroke-miterlimit="10"/>
</g>
<defs>
<clipPath id="clip0_859_1027">
<rect width="30" height="30" fill="white"/>
</clipPath>
</defs>
</svg>
