<svg width="32" height="31" viewBox="0 0 32 31" fill="none" xmlns="http://www.w3.org/2000/svg">
<g clip-path="url(#clip0_996_29)">
<path d="M31.8667 24.8723L27.168 19.6661C26.9707 19.4507 26.6347 19.4297 26.416 19.624C26.1973 19.8184 26.176 20.1494 26.3734 20.3648L30.192 24.5991L24.8427 24.1946L23.1574 21.5836C23.3174 21.4312 23.504 21.3104 23.7174 21.2316C24.448 20.9689 25.024 20.4068 25.2854 19.6871C25.3974 19.3876 25.5947 19.1355 25.856 18.9568C26.496 18.5155 26.9014 17.8273 26.9654 17.0656C26.992 16.7504 27.1147 16.4562 27.3227 16.2145C27.824 15.6261 28.032 14.8591 27.8987 14.1026C27.84 13.7926 27.8827 13.4774 28.0214 13.1885C28.352 12.495 28.352 11.6965 28.0214 11.003C27.8827 10.7141 27.84 10.3989 27.8987 10.0889C28.0374 9.33239 27.824 8.56537 27.3227 7.97698C27.1147 7.73532 26.992 7.44112 26.9654 7.12591C26.9014 6.36415 26.496 5.67068 25.856 5.23464C25.6427 5.08754 25.4667 4.8774 25.3493 4.63049C25.2213 4.36781 24.9067 4.25749 24.64 4.37832C24.3734 4.5044 24.2614 4.81436 24.384 5.07704C24.5814 5.48681 24.88 5.8388 25.248 6.09097C25.6267 6.34839 25.8667 6.75816 25.904 7.20997C25.952 7.74583 26.16 8.23966 26.512 8.64943C26.8107 8.99616 26.9333 9.45322 26.8533 9.89977C26.7574 10.4251 26.8267 10.961 27.0614 11.4443C27.2587 11.8541 27.2587 12.3269 27.0614 12.7367C26.832 13.22 26.7574 13.7559 26.8533 14.2812C26.9333 14.7278 26.8107 15.1848 26.512 15.5315C26.16 15.9413 25.952 16.4404 25.904 16.971C25.8667 17.4228 25.6267 17.8326 25.248 18.09C24.8054 18.3947 24.4694 18.8255 24.2827 19.3246C24.128 19.7501 23.7867 20.0863 23.3547 20.2387C22.8427 20.4226 22.4107 20.7483 22.1014 21.1896C21.84 21.5626 21.424 21.799 20.9654 21.8358C20.4267 21.8831 19.92 22.0879 19.504 22.4347C19.152 22.7289 18.688 22.8497 18.2347 22.7709C17.7013 22.6763 17.1573 22.7499 16.6667 22.9758C16.2507 23.1702 15.7707 23.1702 15.3547 22.9758C14.864 22.7499 14.32 22.6763 13.7867 22.7709C13.3333 22.8497 12.8693 22.7289 12.5173 22.4347C12.1013 22.0879 11.5947 21.8831 11.056 21.8358C10.5973 21.799 10.1813 21.5626 9.92002 21.1896C9.61068 20.7535 9.17335 20.4226 8.66668 20.2387C8.23468 20.0863 7.89335 19.7501 7.73868 19.3246C7.55202 18.8202 7.22135 18.3947 6.77335 18.09C6.39468 17.8326 6.15468 17.4228 6.11735 16.971C6.06935 16.4352 5.86135 15.9413 5.50935 15.5315C5.21068 15.1848 5.08802 14.7278 5.16802 14.2812C5.26402 13.7559 5.18935 13.22 4.96002 12.7367C4.76268 12.3269 4.76268 11.8541 4.96002 11.4391C5.18935 10.9557 5.26402 10.4199 5.16802 9.89452C5.08802 9.44797 5.21068 8.99091 5.50935 8.64418C5.86135 8.2344 6.06935 7.73532 6.11735 7.20471C6.15468 6.75291 6.39468 6.34313 6.77335 6.08571C7.22135 5.78101 7.55202 5.35022 7.73868 4.85113C7.89335 4.4256 8.23468 4.08937 8.66668 3.93702C9.17868 3.75315 9.61068 3.42743 9.92002 2.98613C10.1813 2.61313 10.5973 2.37673 11.056 2.33995C11.5947 2.29267 12.1013 2.08778 12.5173 1.74105C12.8693 1.44685 13.3333 1.32602 13.7867 1.40482C14.32 1.49939 14.864 1.42584 15.3547 1.19994C15.7707 1.00556 16.2507 1.00556 16.6667 1.19994C17.1573 1.42584 17.7013 1.49939 18.2347 1.40482C18.688 1.32602 19.152 1.44685 19.504 1.74105C19.92 2.08778 20.4267 2.29267 20.9654 2.33995C21.424 2.37673 21.84 2.61313 22.1067 2.98613C22.3627 3.34863 22.72 3.64282 23.136 3.8372C23.4027 3.96329 23.7227 3.84771 23.8454 3.58504C23.968 3.32236 23.856 3.00715 23.5893 2.88632C23.3387 2.77074 23.1254 2.59737 22.976 2.38198C22.528 1.75156 21.8294 1.35229 21.056 1.28925C20.736 1.26298 20.4374 1.14215 20.192 0.937261C19.5947 0.44343 18.816 0.238542 18.048 0.36988C17.7334 0.427669 17.4133 0.385641 17.12 0.24905C16.416 -0.0766688 15.6053 -0.0766688 14.9014 0.24905C14.608 0.385641 14.288 0.422416 13.9733 0.36988C13.2053 0.233289 12.4267 0.44343 11.8293 0.937261C11.584 1.14215 11.2853 1.26298 10.9653 1.28925C10.192 1.35229 9.48802 1.75156 9.04535 2.38198C8.85868 2.6394 8.60268 2.83378 8.29868 2.94411C7.56802 3.20678 6.99202 3.76891 6.73068 4.48864C6.62402 4.78809 6.42668 5.04026 6.16002 5.21888C5.52002 5.65492 5.11468 6.34839 5.05068 7.11015C5.02402 7.42536 4.90135 7.71956 4.69335 7.96122C4.19202 8.54961 3.98402 9.31663 4.11735 10.0731C4.17068 10.3831 4.13335 10.7036 3.99468 10.9872C3.66402 11.6807 3.66402 12.4792 3.99468 13.1727C4.13335 13.4617 4.17602 13.7769 4.11735 14.0868C3.97868 14.8433 4.19202 15.6103 4.69335 16.1987C4.90135 16.4404 5.02402 16.7346 5.05068 17.0498C5.10402 17.6487 5.36535 18.1951 5.77602 18.6206L0.133349 24.8723C-0.010651 25.0299 -0.042651 25.2611 0.053349 25.4554C0.149349 25.6498 0.352016 25.7602 0.570682 25.7444L7.13068 25.2453L7.72268 26.5272C7.81335 26.7215 8.00535 26.8371 8.20802 26.8371C8.28268 26.8371 8.35735 26.8214 8.42668 26.7898C8.69335 26.669 8.81068 26.3591 8.69335 26.0964L8.06402 24.7357L9.58935 22.3716C9.97868 22.6606 10.4427 22.8444 10.944 22.8865C11.264 22.9127 11.5627 23.0336 11.808 23.2385C12.0213 23.4171 12.2613 23.5537 12.512 23.6535L10.1067 29.1697L9.56802 28.0034C9.44535 27.7407 9.13068 27.6199 8.85868 27.7407C8.59202 27.8616 8.47468 28.1715 8.59735 28.4394L9.63735 30.688C9.72268 30.8771 9.91468 30.9927 10.1227 30.9927H10.128C10.3413 30.9927 10.528 30.8666 10.6133 30.6722L13.5947 23.8321C13.712 23.8321 13.8347 23.8163 13.952 23.7953C14.2667 23.7428 14.592 23.7796 14.88 23.9162C15.232 24.079 15.6107 24.1631 15.9893 24.1631C16.368 24.1631 16.7467 24.0843 17.0987 23.9162C17.392 23.7796 17.712 23.7428 18.0267 23.7953C18.1493 23.8163 18.2667 23.8269 18.3894 23.8321L21.3654 30.6722C21.4507 30.8613 21.6374 30.9874 21.8507 30.9927H21.856C22.064 30.9927 22.256 30.8718 22.3414 30.6827L24.8533 25.2401L31.4134 25.7391C31.6374 25.7549 31.8347 25.6393 31.9307 25.4502C32.0267 25.2558 31.9947 25.0299 31.8507 24.8671L31.8667 24.8723ZM7.16268 24.1946L1.81335 24.5991L6.54402 19.3561C6.61335 19.4612 6.67735 19.5715 6.72002 19.6871C6.98668 20.4068 7.55735 20.9742 8.28802 21.2316C8.50135 21.3052 8.68802 21.426 8.84802 21.5836L7.16268 24.1946ZM21.8827 29.1749L19.4827 23.6587C19.7334 23.5589 19.9734 23.4171 20.1867 23.2437C20.432 23.0388 20.7307 22.918 21.0507 22.8917C21.5467 22.8497 22.016 22.6711 22.4053 22.3769L23.9307 24.741L21.8827 29.1749ZM9.68002 19.8815C11.4987 21.3157 13.68 22.0669 16 22.0669C21.5893 22.0669 26.1334 17.5909 26.1334 12.0852C26.1334 6.57954 21.5893 2.10354 16 2.10354C10.4107 2.10354 5.86668 6.5848 5.86668 12.0852C5.86668 14.3705 6.63468 16.5245 8.08535 18.3107C8.27202 18.5366 8.60268 18.5733 8.83735 18.3947C9.06668 18.2161 9.10402 17.8851 8.92268 17.6592C7.62135 16.0569 6.93868 14.1341 6.93868 12.0905C6.93868 7.16794 11.008 3.1595 16.0054 3.1595C21.0027 3.1595 25.072 7.16794 25.072 12.0905C25.072 17.013 21.0027 21.0215 16.0054 21.0215C13.9307 21.0215 11.9733 20.3438 10.352 19.0672C10.1227 18.8833 9.78668 18.9253 9.60002 19.1512C9.41335 19.3771 9.45602 19.7081 9.68535 19.8867L9.68002 19.8815ZM10.1333 9.98383C9.84002 9.98383 9.60002 10.2202 9.60002 10.5092V16.2881C9.60002 16.577 9.84002 16.8134 10.1333 16.8134H12.2667C12.5547 16.8134 12.784 16.5875 12.7947 16.3091C13.4507 16.3563 14.0853 16.5822 14.6133 16.971C15.392 17.5489 16.3574 17.8641 17.3334 17.8641H20.7414C21.552 17.8641 22.256 17.2967 22.3787 16.5507C22.4534 16.0884 22.3254 15.6209 22.0214 15.2689C22.0107 15.2584 22.0054 15.2479 21.9947 15.2373C22.2454 14.9589 22.4 14.5912 22.4 14.1866C22.4 13.7821 22.2453 13.4144 21.9894 13.1359C22.2453 12.8575 22.4 12.4898 22.4 12.0852C22.4 11.6807 22.2453 11.313 21.9894 11.0345C22 11.024 22.0054 11.0135 22.016 11.003C22.32 10.651 22.4534 10.1835 22.3734 9.72115C22.2507 8.9699 21.5467 8.40777 20.736 8.40777H18.992L19.3067 7.7826C19.7014 7.01033 19.6587 6.11198 19.1947 5.37649C18.736 4.64099 17.936 4.20495 17.056 4.20495C16.8533 4.20495 16.672 4.31528 16.576 4.4939L14.8853 7.82463C14.704 8.18187 14.336 8.40252 13.9307 8.40252H12.784C12.784 8.11357 12.544 7.87716 12.2507 7.87716H10.1173C9.82402 7.87716 9.58402 8.11357 9.58402 8.40252C9.58402 8.69146 9.82402 8.92787 10.1173 8.92787H11.7173V15.7574H10.6507V10.5039C10.6507 10.215 10.4107 9.97857 10.1173 9.97857L10.1333 9.98383ZM12.8 9.45847H13.9467C14.7627 9.45847 15.4933 9.01192 15.856 8.29745L17.3814 5.28718C17.76 5.37123 18.0907 5.59713 18.2987 5.92811C18.5654 6.34839 18.5867 6.86849 18.3627 7.31504L17.6587 8.69671C17.5734 8.85957 17.584 9.05395 17.68 9.2063C17.776 9.36391 17.9467 9.45322 18.1334 9.45322H20.7414C21.0294 9.45322 21.2854 9.64235 21.3227 9.88926C21.3493 10.0469 21.3067 10.2045 21.2053 10.3201C21.104 10.4356 20.9547 10.5039 20.8 10.5039C20.5067 10.5039 20.2667 10.7403 20.2667 11.0293C20.2667 11.3182 20.5067 11.5546 20.8 11.5546C21.0934 11.5546 21.3334 11.791 21.3334 12.08C21.3334 12.3689 21.0934 12.6053 20.8 12.6053C20.5067 12.6053 20.2667 12.8417 20.2667 13.1307C20.2667 13.4196 20.5067 13.656 20.8 13.656C21.0934 13.656 21.3334 13.8924 21.3334 14.1814C21.3334 14.4703 21.0934 14.7067 20.8 14.7067C20.5067 14.7067 20.2667 14.9432 20.2667 15.2321C20.2667 15.521 20.5067 15.7574 20.8 15.7574C20.9547 15.7574 21.104 15.8257 21.2053 15.9413C21.3067 16.0622 21.3493 16.2145 21.3227 16.3721C21.28 16.6138 21.0294 16.8082 20.7414 16.8082H17.3334C16.5867 16.8082 15.8507 16.5665 15.2533 16.1252C14.544 15.5998 13.68 15.2899 12.8 15.2426V9.45322V9.45847Z" fill="#20259D"/>
</g>
<defs>
<clipPath id="clip0_996_29">
<rect width="32" height="31" fill="white"/>
</clipPath>
</defs>
</svg>
