<svg width="138" height="229" viewBox="0 0 138 229" fill="none" xmlns="http://www.w3.org/2000/svg">
<g clip-path="url(#clip0_859_405)">
<path d="M96.9638 193.003C96.9638 193.003 84.0305 196.833 74.931 185.336C65.8316 173.839 59.122 159.29 66.3907 148.433C66.3907 148.433 69.3324 154.71 86.1492 146.694C86.1492 146.694 73.8009 146.975 69.3981 133.269C64.9953 119.562 71.4821 93.8409 76.7639 88.0833C82.0456 82.3256 81.2181 83.5617 81.2181 83.5617C81.2181 83.5617 70.0253 82.1174 67.5211 67.1768C67.5211 67.1768 66.0246 101.451 53.4717 119.672C42.1785 136.059 32.3772 158.12 45.9864 179.453L47.665 166.262L53.924 180.677C53.924 180.677 58.3033 189.36 63.1162 191.518C67.929 193.675 87.495 201.306 96.9824 193L96.9638 193.003Z" fill="#20FFB3"/>
<path d="M48.135 127.896C48.135 127.896 31.1439 155.674 45.235 179.998" stroke="#20259D" stroke-width="1.99999" stroke-linecap="round" stroke-linejoin="round"/>
<path d="M47.6564 164.649C47.6564 164.649 48.1564 183.523 36.2095 199.382C36.2095 199.382 45.2366 193.1 49.5307 205.126C53.8248 217.152 62.5617 224.108 72.7577 222.103C72.7577 222.103 66.9189 213.6 69.3343 207.981C71.7496 202.362 55.3 192.088 54.1597 181.385" stroke="#20259D" stroke-width="1.99999" stroke-linecap="round" stroke-linejoin="round"/>
<path d="M63.1467 191.183C63.1467 191.183 84.9581 205.866 105.806 187.938C126.653 170.01 125.689 157.406 125.591 153.181C125.348 142.137 103.84 138.805 79.7974 148.678C55.7549 158.55 62.4805 129.678 62.4805 129.678" stroke="#20259D" stroke-width="1.99999" stroke-linecap="round" stroke-linejoin="round"/>
<path d="M84.8098 146.406C84.8098 146.406 69.2588 145.606 68.6262 127.725C67.9935 109.844 70.4506 92.9607 82.0226 83.2875C93.5945 73.6142 91.7523 69.1513 91.7523 69.1513C91.7523 69.1513 86.0965 61.58 85.6775 54.5937C85.2584 47.6074 78.4081 48.6259 73.8068 38.275C69.2056 27.9242 65.1738 24.5397 66.6074 6.57155C66.6074 6.57155 58.7953 20.6497 63.0633 37.4966C67.3314 54.3434 71.6285 89.1899 53.3294 120.125" stroke="#20259D" stroke-width="1.99999" stroke-linecap="round" stroke-linejoin="round"/>
<path d="M67.2341 33.4466C67.2341 33.4466 68.467 42.8547 71.2059 49.3267C73.9448 55.7988 72.1315 63.2047 72.1315 63.2047" stroke="#20259D" stroke-width="1.99999" stroke-linecap="round" stroke-linejoin="round"/>
<path d="M77.1705 50.4744C77.1705 50.4744 79.3855 54.3806 79.027 59.9145C78.7149 64.8012 77.9088 65.656 77.9088 65.656" stroke="#20259D" stroke-width="1.99999" stroke-linecap="round" stroke-linejoin="round"/>
<path d="M84.3242 62.8182C84.3242 62.8182 84.7808 67.5923 82.9298 69.8033" stroke="#20259D" stroke-width="1.99999" stroke-linecap="round" stroke-linejoin="round"/>
<path d="M49.341 181.356C49.341 181.356 46.443 191.093 48.7729 196.418" stroke="#20259D" stroke-width="1.99999" stroke-linecap="round" stroke-linejoin="round"/>
<path d="M52.947 187.725C52.947 187.725 53.5052 204.983 63.5747 215.38" stroke="#20259D" stroke-width="1.99999" stroke-linecap="round" stroke-linejoin="round"/>
<path d="M68.6744 176.916C68.6744 176.916 76.8374 195.569 96.6578 193.605" stroke="#20259D" stroke-width="1.99999" stroke-linecap="round" stroke-linejoin="round"/>
<path d="M46.2364 155.761C46.1701 156.258 46.7623 165.792 50.6371 171.615" stroke="#20259D" stroke-width="1.99999" stroke-linecap="round" stroke-linejoin="round"/>
<path d="M92.4961 172.444C94.5423 172.041 95.6831 169.081 95.044 165.831C94.405 162.582 92.2281 160.274 90.1818 160.676C88.1355 161.079 86.9947 164.039 87.6338 167.289C88.2729 170.538 90.4498 172.846 92.4961 172.444Z" fill="#20259D"/>
</g>
<defs>
<clipPath id="clip0_859_405">
<rect width="98.1594" height="214.089" fill="white" transform="translate(0 18.9414) rotate(-11.126)"/>
</clipPath>
</defs>
</svg>
