<?xml version="1.0" encoding="utf-8"?>
<!-- Generator: Adobe Illustrator 27.5.0, SVG Export Plug-In . SVG Version: 6.00 Build 0)  -->
<svg version="1.1" id="レイヤー_1" xmlns="http://www.w3.org/2000/svg" xmlns:xlink="http://www.w3.org/1999/xlink" x="0px"
	 y="0px" viewBox="0 0 138 229" style="enable-background:new 0 0 138 229;" xml:space="preserve">
<style type="text/css">
	.st0{fill:#FFFFFF;}
	.st1{clip-path:url(#SVGID_00000008871165994303804570000018125011969424104888_);}
	.st2{fill:#20FFB3;}
	.st3{fill:none;stroke:#20259D;stroke-width:2;stroke-linecap:round;stroke-linejoin:round;}
	.st4{fill:#20259D;}
</style>
<g>
	<path class="st0" d="M72.3,98.4c0,0-8.5,29.1-0.8,38.9c7.6,9.8,16.5,8.8,16.5,8.8s23.8-8.5,35.9,2c0,0,11,22.1-28.3,46.1
		c0,0-27.4,8.6-39.9-10.1c0,0,0.3,7.3,8.5,14c0,0,5.8,6.3,5.5,8.1c-0.3,1.8-1.3,7,0.2,10c1.5,3,2.2,5.5,2.2,5.5s-11,3.3-18.5-8.1
		c0,0-5.3-14.8-11.1-15.8s-5.8,1.5-5.8,1.5s8.8-13.8,8.6-19.5c0,0-11-16.8-2.7-39.4s14-19.6,19.1-38.6s6.3-34.4,3.5-53.2
		c0,0-8-22.8,1-39.6c0,0-1.7,17.5,7.6,28.8c0,0,2.8,6.8,5.7,8.3c2.8,1.5,5,5.2,5.7,8.5c0.7,3.3,4.5,13.3,6.3,14.8
		c0,0,1,6.5-8.1,12.6C83.3,81.9,73.8,89.4,72.3,98.4z"/>
	<g>
		<defs>
			
				<rect id="SVGID_1_" x="19.7" y="7.5" transform="matrix(0.9812 -0.193 0.193 0.9812 -20.802 15.4308)" width="98.2" height="214.1"/>
		</defs>
		<clipPath id="SVGID_00000093898671863587441050000013614108875930682029_">
			<use xlink:href="#SVGID_1_"  style="overflow:visible;"/>
		</clipPath>
		<g style="clip-path:url(#SVGID_00000093898671863587441050000013614108875930682029_);">
			<path class="st2" d="M97,193c0,0-12.9,3.8-22-7.7c-9.1-11.5-15.8-26-8.5-36.9c0,0,2.9,6.3,19.8-1.7c0,0-12.3,0.3-16.8-13.4
				c-4.4-13.7,2.1-39.4,7.4-45.2c5.3-5.8,4.5-4.5,4.5-4.5S70,82.1,67.5,67.2c0,0-1.5,34.3-14,52.5c-11.3,16.4-21.1,38.4-7.5,59.8
				l1.7-13.2l6.3,14.4c0,0,4.4,8.7,9.2,10.8C67.9,193.7,87.5,201.3,97,193L97,193z"/>
			<path class="st3" d="M48.1,127.9c0,0-17,27.8-2.9,52.1"/>
			<path class="st3" d="M47.7,164.6c0,0,0.5,18.9-11.4,34.7c0,0,9-6.3,13.3,5.7c4.3,12,13,19,23.2,17c0,0-5.8-8.5-3.4-14.1
				c2.4-5.6-14-15.9-15.2-26.6"/>
			<path class="st3" d="M63.1,191.2c0,0,21.8,14.7,42.7-3.2c20.8-17.9,19.9-30.5,19.8-34.8c-0.2-11-21.8-14.4-45.8-4.5
				c-24,9.9-17.3-19-17.3-19"/>
			<path class="st3" d="M84.8,146.4c0,0-15.6-0.8-16.2-18.7C68,109.8,70.5,93,82,83.3c11.6-9.7,9.7-14.1,9.7-14.1s-5.7-7.6-6.1-14.6
				c-0.4-7-7.3-6-11.9-16.3c-4.6-10.4-8.6-13.7-7.2-31.7c0,0-7.8,14.1-3.5,30.9c4.3,16.8,8.6,51.7-9.7,82.6"/>
			<path class="st3" d="M67.2,33.4c0,0,1.2,9.4,4,15.9c2.7,6.5,0.9,13.9,0.9,13.9"/>
			<path class="st3" d="M77.2,50.5c0,0,2.2,3.9,1.9,9.4c-0.3,4.9-1.1,5.7-1.1,5.7"/>
			<path class="st3" d="M84.3,62.8c0,0,0.5,4.8-1.4,7"/>
			<path class="st3" d="M49.3,181.4c0,0-2.9,9.7-0.6,15.1"/>
			<path class="st3" d="M52.9,187.7c0,0,0.6,17.3,10.6,27.7"/>
			<path class="st3" d="M68.7,176.9c0,0,8.2,18.7,28,16.7"/>
			<path class="st3" d="M46.2,155.8c-0.1,0.5,0.5,10,4.4,15.9"/>
			<path class="st4" d="M92.5,172.4c2-0.4,3.2-3.4,2.5-6.6c-0.6-3.2-2.8-5.6-4.9-5.2c-2,0.4-3.2,3.4-2.5,6.6
				C88.3,170.5,90.4,172.8,92.5,172.4z"/>
		</g>
	</g>
</g>
</svg>
