<svg width="102" height="114" viewBox="0 0 102 114" fill="none" xmlns="http://www.w3.org/2000/svg">
<g clip-path="url(#clip0_1098_19)">
<path d="M52.1408 78.3801C52.1408 78.3801 51.587 70.9257 56.0582 67.5744C61.7164 63.3364 59.1269 65.2416 62.8383 65.4674C62.8383 65.4674 64.3736 58.3541 57.7772 50.7344C51.1807 43.1147 34.3292 41.9197 31.184 41.6601C28.0387 41.4005 24.2117 39.4057 30.4659 42.5401C36.7201 45.6744 43.6519 51.757 47.048 58.4819C47.048 58.4819 47.6451 60.2342 49.7594 61.0257C49.7594 61.0257 52.4269 64.1515 51.9197 67.6701L52.353 73.0406L52.1338 78.3815L52.1408 78.3801Z" fill="#20FFB3"/>
<path d="M46.8313 58.2099C43.0515 50.4241 32.8374 41.0096 24.5302 40.9795C16.223 40.9493 13.3785 49.8335 13.3785 49.8335C13.3785 49.8335 12.0916 42.2778 6.62457 32.1448C1.15757 22.0119 4.18776 12.8476 4.18776 12.8476C8.41593 33.7363 25.0016 38.4451 33.2631 37.0153C41.5245 35.5855 49.993 41.2028 49.993 41.2028C49.993 41.2028 48.1116 40.3642 48.9473 36.0371C49.7831 31.71 48.1619 20.0714 48.1619 20.0714C48.1619 20.0714 49.9033 22.65 51.9931 32.9743C54.0829 43.2987 68.2404 51.9076 73.6424 66.2925C78.7404 79.8646 72.3956 86.372 71.6205 91.9062C70.0203 103.308 66.0589 103.662 66.0589 103.662C66.0589 103.662 63.8181 98.2532 56.0706 90.5359C50.606 85.0966 51.6175 75.6444 51.6175 75.6444C51.6175 73.181 53.424 67.6793 60.6501 65.3801" stroke="#20259D" stroke-width="1.99976" stroke-linecap="round" stroke-linejoin="round"/>
<path d="M61.4993 83.5676C62.4074 83.3838 62.8673 81.8699 62.5265 80.1862C62.1857 78.5025 61.1732 77.2866 60.2651 77.4704C59.357 77.6542 58.8971 79.1681 59.2379 80.8518C59.5787 82.5355 60.5912 83.7514 61.4993 83.5676Z" fill="#20259D"/>
<path d="M49.8621 61.4973C49.8621 61.4973 45.3526 61.7563 41.3112 58.6662C39.096 56.9769 32.6313 54.3993 30.2813 54.875C30.2813 54.875 37.1041 59.0036 37.844 63.2761C38.7972 68.7838 37.8695 75.4876 44.1751 80.0734C44.1751 80.0734 46.9616 68.1082 52.2858 67.8459" stroke="#20259D" stroke-width="1.99976" stroke-linecap="round" stroke-linejoin="round"/>
<path d="M49.6725 65.5685C49.6725 65.5685 45.1467 66.727 42.5467 71.4112" stroke="#20259D" stroke-width="1.99976" stroke-linecap="round" stroke-linejoin="round"/>
<path d="M46.2868 63.3228C46.2868 63.3228 43.9125 63.6785 39.9411 61.5513" stroke="#20259D" stroke-width="1.99976" stroke-linecap="round" stroke-linejoin="round"/>
<path d="M6.6489 28.6357C6.6489 28.6357 9.71545 34.531 13.773 36.0678" stroke="#20259D" stroke-width="1.99976" stroke-linecap="round" stroke-linejoin="round"/>
<path d="M15.7019 39.1008C15.7019 39.1008 13.6487 40.2804 13.5086 42.6007" stroke="#20259D" stroke-width="1.99976" stroke-linecap="round" stroke-linejoin="round"/>
</g>
<circle cx="86.5" cy="101.5" r="2.5" stroke="#20259D" stroke-width="2"/>
<path d="M101 89C101 92.3848 98.4691 95 95.5 95C92.5309 95 90 92.3848 90 89C90 85.6152 92.5309 83 95.5 83C98.4691 83 101 85.6152 101 89Z" stroke="#20259D" stroke-width="2"/>
<defs>
<clipPath id="clip0_1098_19">
<rect width="61.604" height="102.367" fill="white" transform="translate(0.97522 12.9453) rotate(-11.4429)"/>
</clipPath>
</defs>
</svg>
