<?xml version="1.0" encoding="utf-8"?>
<!-- Generator: Adobe Illustrator 27.5.0, SVG Export Plug-In . SVG Version: 6.00 Build 0)  -->
<svg version="1.1" id="レイヤー_1" xmlns="http://www.w3.org/2000/svg" xmlns:xlink="http://www.w3.org/1999/xlink" x="0px"
	 y="0px" viewBox="0 0 457 326" style="enable-background:new 0 0 457 326;" xml:space="preserve">
<style type="text/css">
	.st0{clip-path:url(#SVGID_00000049219480806776532880000005215323637813542815_);}
	.st1{fill:#20FFB3;}
	.st2{fill:none;stroke:#20259D;stroke-width:1.9999;stroke-linecap:round;stroke-linejoin:round;}
	.st3{fill:#20259D;}
	.st4{fill:none;stroke:#20259D;stroke-width:1.3333;stroke-linecap:round;stroke-linejoin:round;}
	.st5{fill:none;stroke:#20259D;stroke-width:2.6666;stroke-linecap:round;stroke-linejoin:round;}
</style>
<g>
	<defs>
		<rect id="SVGID_1_" y="0" width="457" height="326"/>
	</defs>
	<clipPath id="SVGID_00000038415407062719929820000003636579003191179158_">
		<use xlink:href="#SVGID_1_"  style="overflow:visible;"/>
	</clipPath>
	<g style="clip-path:url(#SVGID_00000038415407062719929820000003636579003191179158_);">
		<path class="st1" d="M242.7,128.2l2.9,26.2l45-26.2H242.7z"/>
		<path class="st1" d="M162.1,97.5l-1.1,23.8l28.9-25.3L162.1,97.5z"/>
		<path class="st1" d="M366.7,74.8c0,0-9.9-1.5-10.4-6.6c-0.5-5,2.7-6.7,2.7-6.7s-1.7-12.3-1.2-16.5s10.7-21.2,25.2-22.4
			c14.4-1.2,29.6,6.1,32.4,13.4c2.9,7.4,6.9,15.1,6.2,23.7c-0.7,8.6,1.8,55.1,21.5,69.4l12.3,13.1c0,0-19.8-5.2-24-14.1
			c0,0,0.3-21.7-16.6-28.1l-2.9-0.8l-3.6-22.1l5.1-6.8c0,0,6.1-11.4-0.1-14c0,0-3.9,0.1-4.5,2.9c0,0-0.3,13.6-2,18.2l-4.9-12.2
			l-1.3-0.9l-0.3,6.1l-10.4-12.2l-4.3-2.9l0.9,5.2l-8.1-4.8l-6.6-3.7l-5.2,3.3l-2.9,2.6c0,0,0.3,5.6,0.4,6.8
			C364.1,66,366.7,74.8,366.7,74.8L366.7,74.8z"/>
		<path class="st1" d="M38.2,81.1c0,0-2.4,5.4-2.6,5.5c-0.3,0.1-9.7,6.1-9.7,6.1s4.8-6.8,3.4-12.9c-1.3-6.1-5.5-17.3-6.1-18.6
			c-0.7-1.3-2.8-11.6-1.3-16.3s6.3-14,15.1-18.3c8.8-4.4,15.6-5,19.6-4.5c3.9,0.5,14,6.9,14,6.9s5.2,0.3,7.4,2.4
			c2.2,2.2,5.5,7.9,5.5,7.9s1.3,4.3,1.7,5.5c0.3,1.2,3.3,4.4,3.3,4.4s3.8,2.9,2.2,6.1s-6.2,9.7-6.2,9.7l-1.6,0.9l-1.3-5.3
			c0,0,0.7-8.1-2.7-11.8c-3.4-3.8-3-3.2-3-3.2s-11.5,13.1-17.8,16c0,0-0.8-1.1-0.5-1.5c0.3-0.4,6.4-13.1,6.4-13.1L51.2,58.6
			l-4.5,6.3l-0.3-8.4l-5.6,7c0,0-1.8,4.5-2,4.5c-0.3,0-1.1-3-1.2-3.4c-0.1-0.3,0.3-8.2,0.3-8.2s-4.2-2.3-5.2-1
			c-1,1.3-2.9,7.1-2.1,10.6c0.8,3.4,2.2,7.1,5.1,8.2l1.6,3.3c0,0,0.4,1.9,0.4,2.2C37.7,80,38.2,81.1,38.2,81.1L38.2,81.1z"/>
		<path class="st1" d="M145.3,24.1c0,0-4.5,5.4-4.1,9.4c0.3,4,2,10.8,2,10.8l-7.3-5.8c-0.6-0.4-1.2-4.9-1-5.6
			c0.2-0.7,4.8-12.1,5-12.1c0.2,0-2.8-5,0.1-8.4c2.9-3.4,17.5-10.9,22.3-11.1c4.8-0.2,13.7,3.1,13.7,3.1l4.6,2.7
			c0,0,11.8,2.2,14.9,14.7c0,0,1.2,11.2-0.1,13.4c0,0-5.2,0.3-5.5,2c-0.3,1.7-4,11.7-6,12.1c0.3-0.7,0-13-3.9-15.7
			c-3.9-2.7-14.3-6.8-14.3-6.8l-5.6-1.8l3.6,9.1C163.5,34.1,147.6,27.4,145.3,24.1L145.3,24.1z"/>
		<path class="st1" d="M188.8,53.5c0,0,0.3,10.2,5.3,14.9c0,0-3.4,0.1-11.2-8.1l0.8-5.2L188.8,53.5L188.8,53.5z"/>
		<path class="st1" d="M258,28.5l-3.9,2.9c0,0-2.9,2.4-1,4.4c1.9,2-0.1,3.6-0.1,3.6s-2.9,3.1-1.7,3.7c1.2,0.6,2.7,2.1,2.8,3.1
			c0.1,1-0.4,1.6-0.8,1.5c-0.3-0.1-5.5-1.8-5.5-1.8l-4.6-9.3c0,0-1.7-7.7,2.4-11.8c4-4,6.3-5.6,6.4-7.5c0.1-1.9,6.5-15.7,16-16.4
			c9.5-0.7,15.9,2.4,19.1,4.8s10.2,6.6,10.2,6.6s7.7,2.6,9,10.3c1.2,7.7-1.2,11.5-1.2,11.5l-2.2,2.6L299.3,49l1.6,3.2l2.4,6.7
			l5,10.3c0,0-8.7-2.7-9.3-5.9c-0.6-3.2-1.1-4.9-1.1-4.9l0.3-9c0,0,1.7-9.4-3-16l-1.6,4.6c0,0-3.6-10.6-10.6-13.2l-1.7-0.2l1.3,5.9
			L282,35l-10.9-11.2C271.1,23.8,261.9,25.7,258,28.5z"/>
		<path class="st1" d="M286.8,326h-41.7l3.6-101.4c0,0,6.5,5.4,15.5,4.3c9-1.1,15.7,1.8,18.1-2.7c2.5-4.5,7.8-11.9,7.8-11.9
			s7.4,11.7,9.8,12.8c2.5,1.1,20.6,1.6,20.6,1.6l16.3-1.6l11.3,99h-36.1l-12-67.8c0,0-1.6-6.9-5.8-6.7c-4.3,0.2-3.8,22.9-3.8,22.9
			L286.8,326z"/>
		<path class="st1" d="M77.2,242.4l10.4,64.4l-2,19.3H8l-0.8-80.8c0,0,30.4,2.7,39.5,2.4C55.7,247.2,77.2,242.4,77.2,242.4
			L77.2,242.4z"/>
		<path class="st1" d="M274.7,99.6c0,0,8.9,1.2,13.8-0.2c4.9-1.3,14.3-4.2,14.3-4.2s-7.4,13.8-13.4,14.3
			C283.3,110.1,274.7,99.6,274.7,99.6L274.7,99.6z"/>
		<path class="st1" d="M383.3,123.2c0,0,3.8,2.1,7.6,1.5c3.8-0.7,4-1.6,4-1.6s-6.3,12.6-13.1,11.4
			C379.3,134.1,383.3,123.2,383.3,123.2z"/>
		<path class="st1" d="M357.8,231.3c0,0,11.2,9.6,25.3,10.1c14.1,0.5,38.1-6.5,42.1-7.6l9.5,92.2h-68.5L357.8,231.3z"/>
		<path class="st1" d="M168.1,244.8l-8.5,81.2h-40.8l8.5-109c0,0,28.7,2.9,34.9-2.7c6.3-5.6,6.7-11.4,7.4-11.2
			c0.7,0.2,7.4,11.2,10.1,12.1c2.7,0.9,21.3,5.8,34.3,5.2L227.8,326h-36.5l-14.4-80.5c0,0-1.6-4.3-5.4-4.5
			C171.5,241,168.8,242.1,168.1,244.8L168.1,244.8z"/>
		<path class="st2" d="M254.2,46.5c0,0,1.8,30.1,20.4,30.9c18.5,0.8,23.6-20.3,23.6-20.3"/>
		<path class="st3" d="M264.5,51.9c1,0,1.8-1.2,1.8-2.6c0-1.4-0.8-2.6-1.8-2.6c-1,0-1.8,1.2-1.8,2.6
			C262.7,50.8,263.5,51.9,264.5,51.9z"/>
		<path class="st3" d="M281.6,50.9c1,0,1.8-1.2,1.8-2.6c0-1.4-0.8-2.6-1.8-2.6s-1.8,1.2-1.8,2.6C279.7,49.8,280.6,50.9,281.6,50.9z"
			/>
		<path class="st2" d="M274.2,68.2c0,0,0.1-2.6,1.7-2.9c1.7-0.2,5.4,1.5,4.9,2.4c-0.5,0.9-4.1,1.2-4.1,1.2"/>
		<path class="st2" d="M258.4,27.3c0,0-1-7.9,4.2-8.2c5.2-0.3,19.4,16.6,19.4,16.6s2.5-9.8-3.9-16.2"/>
		<path class="st2" d="M281.3,24.1c0,0,10.8,3.8,12.3,14.8c0,0,3.4-4,1-15.4"/>
		<path class="st2" d="M295.6,33.2c0,0,3.8,5.6,3.1,15.4c-0.7,9.8,5.3-9.8,4.3-19.4"/>
		<path class="st2" d="M255.3,30.9c0,0-5,3.6-2.6,5.3c2.4,1.7,0.7,2.5,0.6,2.7c-0.1,0.2-5.4,4.4,0.3,5.1"/>
		<path class="st2" d="M252.1,18.6c0,0,1.1-13,13.4-16.9c0,0,12.1-3.8,21.1,3.5c9.1,7.3,11.2,5.7,16.6,11.4
			c5.4,5.7,3.6,14.4,3.6,14.4"/>
		<path class="st2" d="M249.2,20.5c0,0-8.2,6.6-5.7,14c2.5,7.4,3.3,8,3.3,8"/>
		<path class="st2" d="M279.6,40.3c0,0,1.9-2.3,5.3-1.6"/>
		<path class="st2" d="M265.2,41.9c0,0-1.4-0.8-6-0.4"/>
		<path class="st2" d="M256.5,60.7c0,0-5.2-1.1-7.9-4.9c-2.4-3.4-4.3-9-1.7-10.1c3.2-1.4,7.3,2.5,7.3,2.5"/>
		<path class="st2" d="M302.8,36.9c0,0,3.8-4.5,6.6-1.6c2.8,3-1.7,16.7-8,17.5"/>
		<path class="st2" d="M302.6,57.6c0,0,2.4,9.2,5.6,11.5c3.2,2.3-4.3-0.5-7.5-4.3"/>
		<path class="st2" d="M296.9,61.2l2.5,23.2"/>
		<path class="st2" d="M274.6,77.5l1.5,11.2"/>
		<path class="st2" d="M273.1,82.5c0,0-12.1,8.9,11.1,25.5c0,0.1,2.8,2,5.2,1.7c2.2-0.2,4.6-2.4,4.6-2.4s18.2-17.3,10.7-28.5"/>
		<path class="st2" d="M275.3,99.6c0,0,13.7,2.3,27.3-4"/>
		<path class="st2" d="M265.9,80.2c0,0-20.9,7-31,30.7c-10.1,23.7-16.1,63-14.2,66.8"/>
		<path class="st2" d="M223.2,183.7c0,0,3.5,11.4,13.9,11.1c10.4-0.3,18-4.7,18-4.7"/>
		<path class="st2" d="M233.3,168.5c0,0,1.1-3.9-0.6-11.3c-1.7-7.4,6.9-0.4,6.9,5.3"/>
		<path class="st2" d="M237.1,167.5c0,0,3.6-4.6,8.3-7.3c2.8-1.6,7.2-1.9,8.4-1.5c3.6,1.1,0.4,7.5,4.2,9c3.8,1.5,6,12.8-1.6,17.7
			c-5.2,3.4-14.6,0.3-18.4-2.2"/>
		<path class="st2" d="M322.6,159.4l1.2-32.4c0,0,1.7-6.2-5.4-6.2c0,0-72.7-0.8-77.7,0c-5.1,0.8-4.1,4.9-4.1,4.9l4.3,36.5"/>
		<path class="st2" d="M261.9,176.1h42.8"/>
		<path class="st2" d="M231.7,166.9c0,0-5.2,6.6,0.1,13.3"/>
		<path class="st2" d="M325.5,161.7c0,0-10-5.7-14.1-3.8c-4.1,1.9-3.3,8.4-3.3,8.4s0.7,6.3-1.4,7.1c-2.1,0.8-2.7,6.2,0.4,9.4
			c5.2,5.4,16.6,2.6,16.6,2.6"/>
		<path class="st2" d="M323.9,151.7c0,0,4.1-1.6,4.9,3.2c0.8,4.7,1.4,10.6,3,12.7"/>
		<path class="st2" d="M348,187.1c-0.7,1.4-1.7,2.5-2.8,3.4c-8.7,6.9-28.3,2.2-29.7-1.3"/>
		<path class="st2" d="M305.1,72.8c0,0,24.9,9.3,33.5,30.8c3.5,8.7,6.3,22.3,8.1,33.3"/>
		<path class="st2" d="M333.2,164.4c0,0,1.3,16.2-9.3,23.4"/>
		<path class="st2" d="M244.7,197l-1.9,20.6c0,0,0,7,9.8,9.5c9.8,2.5,25,3.5,29.7-0.6c4.7-4.1,7.6-12.7,7.6-12.7s8.5,13.3,11.4,13.9
			c2.8,0.6,30,3.2,38.9-1.9c8.8-5.1,0-30.4,0-30.4"/>
		<path class="st2" d="M288.7,193.4c1.6,0,2.8-1.3,2.8-2.8c0-1.6-1.3-2.8-2.8-2.8c-1.6,0-2.8,1.3-2.8,2.8
			C285.9,192.2,287.2,193.4,288.7,193.4z"/>
		<path class="st2" d="M248.5,226.8l-3.3,98.2"/>
		<path class="st2" d="M286.8,325l5.5-69.1c0,0,0.8-4.2,3.8-4.2c3,0,5.5,9.3,5.5,9.3l10.6,64"/>
		<path class="st2" d="M337,227.2l11.1,97.7"/>
		<path class="st2" d="M287.2,227.6c0,0-0.1,15.4,4.5,20.7"/>
		<path class="st2" d="M297,247.4l-0.5-21.3"/>
		<path class="st3" d="M380.3,73.6c1.1,0,2-1.4,2-3.2c0-1.8-0.9-3.2-2-3.2s-2,1.4-2,3.2C378.4,72.2,379.2,73.6,380.3,73.6z"/>
		<path class="st2" d="M363.3,62.6c0,0,6.6,31.4,18.7,32.6c12.2,1.2,20.2-12.8,20.2-12.8"/>
		<path class="st2" d="M379.4,86.2c0,0,3.3,2.2,7.7-2.6"/>
		<path class="st2" d="M375.7,63.7c0,0,0.7-3.1,7.2-2"/>
		<path class="st4" d="M263.1,21.5c0,0-1.9,2-1.9,5.1c0,0,1.4-2.1,3.7-2.5"/>
		<path class="st2" d="M363.1,57c0,0-3-7.2,2.5-7.2c5.4,0,20.9,11.5,20.9,11.5s0.2-8.7-6.6-14.1"/>
		<path class="st2" d="M385.7,55.2c0,0,10,6.6,13.9,16.8c0,0,3.3-11.2-4.8-20.7"/>
		<path class="st2" d="M400.2,63.2c0,0,6.4,9.8,6.1,16.2c0,0,4.7-8.5,1-26.1"/>
		<path class="st2" d="M408.6,58.9c0,0,2.2-3.4,4.9-2.2c5.1,2.1,2.2,10.9-0.5,14.4"/>
		<path class="st4" d="M366.4,52.1c-0.8,1.4-0.7,4.2-0.7,4.2s1.5-1.4,2.1-1.8"/>
		<path class="st2" d="M360.5,60.2c0,0-11.2,10.7,2.3,13.6"/>
		<path class="st2" d="M358,57c0,0-3.1-13.8,5.4-22.7c8.5-8.9,18.2-15,35.7-9.9c17.4,5.1,22.3,19.9,22.8,36.5
			c0.5,16.6-2.1,52.1,34.3,81.6c0,0-17.6-3-23-12"/>
		<path class="st2" d="M408.9,79.9l3.3,19.2"/>
		<path class="st2" d="M391,93.5c0,0,3.6,9,2.1,15.6"/>
		<path class="st2" d="M415.5,100.3c1.1,0.2,15.8,3.1,16,31.6c0.2,28.5-19.1,67.3-26.3,68s-41.1-7.9-41.1-7.9s-4.5-19.2,3.3-21.9
			l24.2,3.1"/>
		<path class="st2" d="M409.8,120c0,0-8.1,27-7,37.3"/>
		<path class="st2" d="M396.7,172c0,0,6.1-0.7,11.2,2.9"/>
		<path class="st2" d="M385.3,115.2c0,0-7.9,20.4-2.4,20c5.5-0.4,21.2-22.4,21.2-22.4"/>
		<path class="st2" d="M383,122.8c0,0,3.9,4.6,12.9,0.4"/>
		<path class="st2" d="M388.8,101.3c0,0-15.1,6.6-16.9,11.4"/>
		<path class="st2" d="M359.1,130.7c0,0-8.4-3.9-8.2-14.5c0.2-10.5,7.4-8.6,7.4-8.6s2-11.2,10.8-11.5c0,0,2.2-0.4,2.2,2.4
			c0,2.7-4.9,3.2-5,7.9"/>
		<path class="st2" d="M367.8,108.8c0.3,0,3.8,2.6,2.6,10.3"/>
		<path class="st2" d="M350.4,128.3c0,0-16.1,34.3-4.6,42.3"/>
		<path class="st2" d="M351.7,131.8c0,0,0.9,5,9,4.2"/>
		<path class="st2" d="M366.4,132.9c0,0,1.1,3.7-0.2,9c-1.3,5.3-6.1,28.9-6.1,28.9"/>
		<path class="st2" d="M362.6,172.4l-5.5-3.9c0,0-6.6-8-9.1-7.3c-2.5,0.7,0.8,6,0.9,6.4l2.1,3.2l-4.7-0.6"/>
		<path class="st2" d="M341.2,164.8c0,0-3.2,2.6-1.9,4.7c1.3,2.1,0.7,7,1.5,9.3c0.9,2.3,1.4,10.4,12.4,8.7c0,0,5.8-0.9,10.1,2.1"/>
		<path class="st2" d="M361.9,160.8l3.3,9.2"/>
		<path class="st2" d="M364.1,191.9c0.8,1.4-8.4,36.6-8.4,36.6s13.8,21,59.8,8.9l14.8-6.2c0,0-10.4-27.7-8.4-56.4"/>
		<path class="st2" d="M378.7,249.3l17.1,74.3"/>
		<path class="st2" d="M424.8,233.7l10,91.3"/>
		<path class="st2" d="M358.3,231.8L366,325"/>
		<path class="st2" d="M143.2,44.8c0,0.5,2,26.2,20.2,26.4c18.1,0.2,20.3-13.1,20.3-13.1"/>
		<path class="st3" d="M167.9,43.6c1,0,1.8-1.3,1.8-2.9c0-1.6-0.8-2.9-1.8-2.9c-1,0-1.8,1.3-1.8,2.9C166,42.3,166.9,43.6,167.9,43.6
			z"/>
		<path class="st3" d="M150.9,44.6c1,0,1.8-1.3,1.8-2.9c0-1.6-0.8-2.9-1.8-2.9c-1,0-1.8,1.3-1.8,2.9C149,43.3,149.9,44.6,150.9,44.6
			z"/>
		<path class="st2" d="M157.1,58c0.3-0.2,8.2-1.2,10-0.3c1.8,0.9-3,3.5-3,3.5"/>
		<path class="st2" d="M164,32.1c0,0,3.1-2.2,8.3-0.6"/>
		<path class="st2" d="M149.7,33c0,0-4-1.7-6.3,1"/>
		<path class="st2" d="M145.4,23.5c0,0,9.2,8.1,18.1,10.3c0,0-3.2-10-4.6-12.2"/>
		<path class="st2" d="M160.5,24.7c0,0,12.1,3.6,19.5,9.9c0,0-0.2-5.9-4.2-10.1"/>
		<path class="st2" d="M138.2,26.2c0,0-5.8,7.5-2.9,12.2c0.4,0.7,4.9,4.1,4.9,4.1"/>
		<path class="st2" d="M139.5,20.5c0,0-4.4-5.7,3.5-10.6c7.9-4.9,17.9-14.8,37.3-3.4c0,0,19,4.5,15.5,26.7"/>
		<path class="st2" d="M181.5,36.7c0,0,2.9,6.5,2,13c0,0,7.4-7.2,5.9-17.3"/>
		<path class="st2" d="M190.3,36.3c0,0,1.9-2.4,5.1-0.7c3.3,1.7,2.5,14.6-6.6,17.6"/>
		<path class="st2" d="M188.9,57c0,0,0.7,6.6,5.2,11.3c4.5,4.7-7.6-2.5-8.9-4.9"/>
		<path class="st2" d="M142.2,29.6c0,0-2.6,3.6-0.7,8.8"/>
		<path class="st2" d="M156.9,73.1L148.4,87l10.7-5.6l6.7,1.1l-6-9.2L156.9,73.1z"/>
		<path class="st2" d="M169.2,82.3l13.7-14.6l3.4,17l-9.2-3.6L169.2,82.3z"/>
		<path class="st2" d="M163.4,71.2l0.3,8.2"/>
		<path class="st2" d="M152.3,75.1l-16.7,9.2c0,0-9,5.4-13.2,15.5c-8.6,20.4-21.7,65.2-12.8,68.4"/>
		<path class="st2" d="M187.1,71.1c0,0,24.4,9.6,30.9,22c6.5,12.3,8.6,33.4,9.8,38.8"/>
		<path class="st2" d="M186.2,156.5c0,0-23.1,0.9-27.1,1.1c-4,0.2-4.9-4-4.9-4l1.8-56.5c0-4,3-4.5,3-4.5l41.4-2c0,0,3.5-0.7,3.2,4
			l-0.8,32.8"/>
		<path class="st2" d="M199.6,136.1c0.3-2.2,1.7-6.4,1.7-6.4s0.6-2.5,2.9-1.7c0.6,0.2,2.8,1.3,2.3,5c-0.5,3.7-0.7,6.1,0.7,8.4"/>
		<path class="st2" d="M199.8,137.3c0,0-6.5,0.8-7.4,2.5c-0.8,1.7-1.5,5.9-1.8,8.6c-0.3,2.7-3.2,6.7-3,9.6c0.2,2.9,4.2,7.7,12.6,6.6
			s11.4-6.9,11.4-6.9"/>
		<path class="st2" d="M194.1,165c0.3,0.8,1.5,6.6,8.7,6.6c7.2,0,17.8-2.2,17.8-2.2"/>
		<path class="st2" d="M209.2,139.7c0,0,3-1,6,6.7"/>
		<path class="st2" d="M206.4,116.6l-3.3,8.2"/>
		<path class="st2" d="M117,169.2c1,0.7,9.1,0,15.5-4.7c6.4-4.7,16.5-17.8,16.5-17.8s-9.4-9.7-9.1-23.9l-15.7,13.7"/>
		<path class="st2" d="M132.7,114.1l1.8,12.3"/>
		<path class="st2" d="M140.3,127.1c0,0,2.5-10.8,7.8-15.9s7.6-4.9,7.6-4.9"/>
		<path class="st2" d="M144.8,139.7c0,0,7.4,1.3,9.4-2"/>
		<path class="st2" d="M132.3,165.2l-4.1,31.3l-3.5,20.8c0,0,21.5,3.5,37.6-2.6c0,0,6.7-7.7,7.7-12.1c0,0,5,9.7,10.7,13.4
			c5.7,3.7,38.3,4.6,38.3,4.6s-4-37-5.4-49.8"/>
		<path class="st4" d="M169.2,163.9v23.7"/>
		<path class="st2" d="M127.1,218.3L119.3,325"/>
		<path class="st2" d="M160,325l7.7-79.3c0,0,0.4-4.3,3.5-4.3s4.9-0.2,6.3,6.5l13.9,77.1"/>
		<path class="st2" d="M213.6,220.6L227.7,325"/>
		<path class="st4" d="M165.8,215.6c-0.5,1.7-0.1,15.9,2.5,22.3"/>
		<path class="st4" d="M174.8,219.5v17.8"/>
		<path class="st2" d="M63.1,59c2.1,1.4,3.6,3.9,3.6,6.7c0,4.5-3.6,8.1-8.1,8.1c-4.5,0-8.1-3.6-8.1-8.1s3.6-8.1,8.1-8.1"/>
		<path class="st2" d="M74.9,73.8c4.5,0,8.1-3.6,8.1-8.1c0-4.5-3.6-8.1-8.1-8.1s-8.1,3.6-8.1,8.1C66.9,70.1,70.5,73.8,74.9,73.8z"/>
		<path class="st3" d="M59.7,68.4c0.9,0,1.7-1.3,1.7-2.9s-0.8-2.9-1.7-2.9c-0.9,0-1.7,1.3-1.7,2.9S58.7,68.4,59.7,68.4z"/>
		<path class="st3" d="M73,68.4c0.9,0,1.7-1.3,1.7-2.9c0-1.6-0.8-2.9-1.7-2.9c-0.9,0-1.7,1.3-1.7,2.9C71.3,67.1,72.1,68.4,73,68.4z"
			/>
		<path class="st2" d="M70.9,53c0,0,5-3.1,9.7-0.2"/>
		<path class="st2" d="M63.7,53c0,0-5-3.1-9.7-0.2"/>
		<path class="st2" d="M79.6,73.3c0,0-0.9,22.4-21.3,22.6C38,96.2,36.4,72.9,36.4,72.9"/>
		<path class="st2" d="M69.3,82.7l-16.5,0.5c0,0,1.5,3.9,8.4,4c0,0,3.3,0.2,5.2-2.4"/>
		<path class="st2" d="M79.2,41.7c0,0-14.8,17.7-22.5,20L65.3,44"/>
		<path class="st2" d="M63.3,47.6c0,0-11.4,7.8-16.5,17.7c0,0-2.5-7.6,2.4-16.6"/>
		<path class="st2" d="M46.1,57c0,0-7.4,7.1-7.2,11.8c0,0-3.5-6.6,0.5-14.5"/>
		<path class="st2" d="M38.2,57c0,0-6.5-6.1-7.9,3.7c-1.3,9.8,3.5,13.4,6.2,13.8"/>
		<path class="st2" d="M76.8,46.1c0,0,5,4.5,4.9,13.3"/>
		<path class="st5" d="M50.2,63.8l-10.5-7.3"/>
		<path class="st2" d="M83.4,45.7c0,0,10.5,5.4,6.5,11.9c-3.6,6-5,6.7-5,6.7"/>
		<path class="st2" d="M84.3,40.6c0,0-2.4-11.6-13.3-11.8c0,0-9.2-8.6-21-6.6S11,35.1,25.7,67c0,0,9.1,15-1.3,26.1
			c0,0,10.2-4.5,12.2-8.6"/>
		<path class="st2" d="M55.9,95.8c0,0-4.2,14.8-3,17.3"/>
		<path class="st2" d="M37.6,81.7l-5,17"/>
		<path class="st2" d="M31.4,104.7c-0.5-0.5,18.8,31.4,27.5,30.8c8.7-0.7,0-20.2,0-20.2"/>
		<path class="st2" d="M29.2,96.8c0,0-16.8-3.5-23.3,11.9c-6.5,15.5,2,67.7,2,67.7"/>
		<path class="st2" d="M76.9,206.9l-3.6-22.6"/>
		<path class="st2" d="M8.9,182.9c0,0-12.1,55.6-6.7,60.1s69,9,79.7-4.5l-0.8-4.8"/>
		<path class="st2" d="M13.9,136.3c0,0,28.6,51.4,45.3,50.1c16.8-1.3,32.6-34,32.6-34l-14.4-14.6l-23.3,19.7"/>
		<path class="st2" d="M50.7,152.4l-13.2-2"/>
		<path class="st2" d="M46.9,147.1l-8.5-18.8"/>
		<path class="st2" d="M80.7,139.2l5.2-7.8c0,0-2.1-8,1.1-12.7c0,0,1.9-1,2.5,0.6c0.6,1.6,0.6,7.4,2.6,7.7c2,0.3,8.6-13.4,11.4-16.4
			c2.8-2.9,5.6-1.5,4,2.8c-1.6,4.3-3.6,8.2-3.6,8.2s1.1,2.2,1.3,3.5c0.2,1.3,3.6,3.7,2.9,10.1s-8.2,11-11.8,13c-3.6,2-7,1.6-7,1.6"
			/>
		<path class="st2" d="M58.1,103.1c0.7,0.2,16.8,10.1,21.5,32.3"/>
		<path class="st2" d="M66,249.5l-0.9,24.7l-5.2,50.7"/>
		<path class="st2" d="M8,245.9V325"/>
		<path class="st2" d="M77.3,242.4l10.4,64.7L85.6,325"/>
		<path class="st2" d="M84.8,169.2c0,0,5,28.6,4.4,33.6c-0.7,5-2,7.6-2,7.6"/>
		<path class="st2" d="M84.7,208.3c-1.4,4.7-11.8,11-11,5.6c0.1-0.9,2.7-5,4.6-7.6C80.8,202.8,86,204.3,84.7,208.3z"/>
		<path class="st2" d="M85.2,207.9c0,0,3.7,4,3.3,11.8c-0.3,7.9-6.3,13.7-9.3,11.9c-3-1.8-4.6-10.7-2.3-16"/>
	</g>
</g>
</svg>
