<svg width="197" height="393" viewBox="0 0 197 393" fill="none" xmlns="http://www.w3.org/2000/svg">
<g clip-path="url(#clip0_859_455)">
<path d="M159.327 219.448C157.814 180.7 150.726 138.297 134.215 112.016C134.215 112.016 115.528 77.1716 116.072 54.6941C116.617 32.2166 133.121 10.5248 154.834 2.20349C154.834 2.20349 112.317 0.88531 102.963 30.7161C90.4387 70.6589 104.821 78.9978 84.7136 92.4001C84.7136 92.4001 80.1683 96.0857 83.4858 97.1258C86.8104 98.1657 113.083 98.7936 120.952 120.483C128.821 142.172 129.057 188.955 112.82 205.486C96.5822 222.018 94.2207 221.645 68.8456 252.564C68.8456 252.564 65.9739 256.698 62.5063 259.083C41.0615 271.256 20.3473 296.185 14.8516 366.003C14.8516 366.003 12.248 389.735 24.024 391.153C35.8001 392.571 47.381 364.751 76.982 354.255C106.013 343.956 151.176 319.536 157.452 276.042C159.918 271.979 161.763 267.363 162.347 262.219C164.8 240.604 166.66 211.828 188.855 203.96C188.855 203.96 173.257 207.262 159.368 219.418C159.327 219.455 159.334 219.448 159.334 219.448L159.327 219.448Z" fill="white"/>
<path d="M102.849 259.212C106.638 269.746 108.272 281.242 108.681 292.243C119.697 283.609 134.481 269.244 141.148 247.445C144.949 235.022 151.882 225.983 159.314 219.47C153.628 133.106 133.626 117.034 133.626 117.034C155.632 201.658 89.8975 223.219 102.849 259.212Z" fill="#20FFB3"/>
<path d="M135.221 296.329C125.357 290.75 115.867 291.784 108.746 294.288C109.37 320.027 103.552 342.468 103.552 342.468C103.552 342.468 137.02 322.931 145.313 306.937C150.234 297.447 154.973 291.833 157.611 275.769C149.746 288.96 135.221 296.329 135.221 296.329Z" fill="#20FFB3"/>
<path d="M99.5617 46.9088C99.5617 46.9088 96.2662 83.0632 107.757 92.4492C119.248 101.835 122.29 123.007 122.29 123.007C122.29 123.007 118.063 104.568 94.0762 99.4131C94.0762 99.4131 83.9311 97.7 82.7133 96.4595C81.4955 95.2189 85.0076 92.157 87.4011 90.4327C89.7946 88.7084 96.9543 82.8116 96.4092 74.8757C95.8641 66.9398 98.2984 47.7806 99.5549 46.9161L99.5617 46.9088Z" fill="#20FFB3"/>
<path d="M141.884 260.516C141.884 260.516 153.995 234.196 155.75 231.089C157.506 227.982 163.766 220.136 163.766 220.136C163.766 220.136 148.239 255.122 141.884 260.516Z" fill="#20FFB3"/>
<path d="M131.306 274.839C131.306 274.839 149.703 265.71 158.238 249.939L159.894 244.261C159.894 244.261 145.228 265.179 131.306 274.839Z" fill="#20FFB3"/>
<path d="M159.327 219.449C157.814 180.7 150.727 138.297 134.216 112.016C134.216 112.016 115.528 77.1721 116.073 54.6946C116.617 32.2171 133.121 10.5253 154.834 2.20395C154.834 2.20395 112.317 0.88577 102.963 30.7165C90.439 70.6594 104.822 78.9983 84.7139 92.4006C84.7139 92.4006 80.1686 96.0862 83.4861 97.1263C86.8037 98.1665 113.083 98.7941 120.952 120.483C128.821 142.173 129.057 188.955 112.82 205.487C96.5825 222.019 94.221 221.645 68.8459 252.564" stroke="#20259D" stroke-width="1.99996" stroke-linecap="round" stroke-linejoin="round"/>
<path d="M92.7794 233.084C92.7794 233.084 89.1246 245.621 66.3534 257.029C43.5823 268.437 20.6731 292.008 14.8449 366.004C14.8449 366.004 12.2413 389.735 24.0173 391.154C35.7934 392.572 47.3743 364.752 76.9752 354.255C106.089 343.925 151.446 319.392 157.508 275.653" stroke="#20259D" stroke-width="1.99996" stroke-linecap="round" stroke-linejoin="round"/>
<path d="M96.49 301.098C96.49 301.098 115.089 284.94 135.214 296.329C135.214 296.329 159.888 283.835 162.341 262.219C164.793 240.604 166.653 211.829 188.848 203.96C188.848 203.96 152.06 211.757 141.141 247.438C131.149 280.108 102.909 296.095 96.4827 301.092L96.49 301.098Z" stroke="#20259D" stroke-width="1.99996" stroke-linecap="round" stroke-linejoin="round"/>
<path d="M122.396 16.0807C121.472 16.4259 103.04 32.8873 111.259 71.7222" stroke="#20259D" stroke-width="1.99996" stroke-linecap="round" stroke-linejoin="round"/>
<path d="M102.884 53.0213C102.884 53.0213 99.1202 72.9774 107.767 82.4658" stroke="#20259D" stroke-width="1.99996" stroke-linecap="round" stroke-linejoin="round"/>
<path d="M88.6727 93.803C89.6087 93.767 95.0333 88.5702 103.709 94.786" stroke="#20259D" stroke-width="1.99996" stroke-linecap="round" stroke-linejoin="round"/>
<path d="M51.6848 330.429C54.0131 330.34 55.7797 327.128 55.6307 323.256C55.4816 319.384 53.4733 316.318 51.1451 316.408C48.8168 316.497 47.0501 319.709 47.1992 323.581C47.3482 327.453 49.3565 330.519 51.6848 330.429Z" fill="#20259D"/>
<path d="M120.717 285.04C120.717 285.04 143.409 281.824 152.631 273.829" stroke="#20259D" stroke-width="1.99996" stroke-linecap="round" stroke-linejoin="round"/>
<path d="M131.114 274.966C131.114 274.966 148.652 265.87 158.464 250.676" stroke="#20259D" stroke-width="1.99996" stroke-linecap="round" stroke-linejoin="round"/>
<path d="M140.993 261.719C140.993 261.719 150.759 249.566 163.126 221.638" stroke="#20259D" stroke-width="1.99996" stroke-linecap="round" stroke-linejoin="round"/>
</g>
<defs>
<clipPath id="clip0_859_455">
<rect width="181.664" height="384.872" fill="white" transform="translate(0.0246582 7.54492) rotate(-2.20441)"/>
</clipPath>
</defs>
</svg>
