<svg width="457" height="326" viewBox="0 0 457 326" fill="none" xmlns="http://www.w3.org/2000/svg">
<g clip-path="url(#clip0_916_212)">
<path d="M242.68 128.226L245.589 154.442L290.594 128.226H242.68Z" fill="#20FFB3"/>
<path d="M162.073 97.5119L160.952 121.271L189.837 95.9448L162.073 97.5119Z" fill="#20FFB3"/>
<path d="M366.728 74.7642C366.728 74.7642 356.819 73.2477 356.314 68.2129C355.809 63.178 359.001 61.4896 359.001 61.4896C359.001 61.4896 357.324 49.216 357.829 45.0203C358.334 40.8246 368.576 23.8396 383.019 22.6669C397.462 21.4941 412.571 28.7228 415.429 36.1133C418.288 43.5038 422.317 51.238 421.641 59.8114C420.964 68.3847 423.489 114.952 443.133 129.237L455.395 142.35C455.395 142.35 435.579 137.143 431.377 128.226C431.377 128.226 431.71 106.54 414.753 100.151L411.894 99.3115L408.289 77.2108L413.409 70.4067C413.409 70.4067 419.54 58.9722 413.329 56.4548C413.329 56.4548 409.47 56.5357 408.794 59.3969C408.794 59.3969 408.46 73.0151 406.774 77.5546L401.825 65.3719L400.562 64.4519L400.229 70.5078L389.816 58.3252L385.534 55.3831L386.453 60.5898L378.312 55.7977L371.676 52.0974L366.475 55.373L363.536 57.9814C363.536 57.9814 363.869 63.6128 363.96 64.7855C364.051 65.9583 366.728 74.7844 366.728 74.7844V74.7642Z" fill="#20FFB3"/>
<path d="M38.167 81.0728C38.167 81.0728 35.8137 86.4514 35.5612 86.5323C35.3087 86.6132 25.8249 92.5882 25.8249 92.5882C25.8249 92.5882 30.6123 85.7841 29.269 79.7282C27.9257 73.6722 23.815 62.4096 23.1383 61.156C22.4616 59.9023 20.3709 49.5597 21.8758 44.8484C23.3807 40.1371 28.1782 30.8964 36.9853 26.5289C45.7924 22.1613 52.5998 21.4839 56.5488 21.9894C60.4979 22.4949 70.5675 28.8845 70.5675 28.8845C70.5675 28.8845 75.769 29.1373 77.9607 31.3211C80.1524 33.5048 83.5055 39.217 83.5055 39.217C83.5055 39.217 84.8488 43.5037 85.1821 44.6765C85.5154 45.8493 88.4545 49.0441 88.4545 49.0441C88.4545 49.0441 92.2319 51.9861 90.6361 55.1809C89.0403 58.3757 84.4246 64.8461 84.4246 64.8461L82.8288 65.7662L81.5663 60.4685C81.5663 60.4685 82.243 52.4006 78.8798 48.6194C75.5165 44.8383 75.8599 45.4246 75.8599 45.4246C75.8599 45.4246 64.3561 58.5374 58.0638 61.3986C58.0638 61.3986 57.3063 60.3067 57.5588 59.8821C57.8113 59.4575 63.942 46.7693 63.942 46.7693L51.1757 58.6183L46.7216 64.927L46.3883 56.5255L40.7627 63.5015C40.7627 63.5015 38.9952 68.0409 38.7427 68.0409C38.4902 68.0409 37.6519 65.018 37.5711 64.6743C37.4903 64.3305 37.8236 56.4345 37.8236 56.4345C37.8236 56.4345 33.622 54.1699 32.6221 55.4235C31.6223 56.6772 29.6831 62.5714 30.5214 66.0189C31.3597 69.4665 32.7029 73.0758 35.642 74.2586L37.2378 77.5343C37.2378 77.5343 37.662 79.4653 37.662 79.7181C37.662 79.9708 38.167 81.0627 38.167 81.0627V81.0728Z" fill="#20FFB3"/>
<path d="M145.277 24.1126C145.277 24.1126 140.802 29.4911 141.136 33.5251C141.469 37.559 143.156 44.2822 143.156 44.2822L135.874 38.4588C135.318 38.014 134.641 33.5251 134.864 32.8578C135.086 32.1905 139.681 20.756 139.903 20.756C140.126 20.756 137.106 15.7111 140.015 12.3545C142.923 8.99798 157.477 1.48618 162.295 1.26376C167.113 1.04134 175.95 4.39789 175.95 4.39789L180.535 7.08717C180.535 7.08717 192.292 9.33162 195.423 21.767C195.423 21.767 196.655 32.969 195.312 35.2135C195.312 35.2135 190.161 35.5471 189.827 37.2355C189.494 38.9239 185.798 48.8924 183.778 49.3373C184.111 48.6599 183.778 36.3357 179.859 33.6464C175.94 30.9571 165.527 26.812 165.527 26.812L159.932 25.0225L163.517 34.1014C163.517 34.1014 147.62 27.3781 145.267 24.1227L145.277 24.1126Z" fill="#20FFB3"/>
<path d="M188.828 53.4722C188.828 53.4722 189.161 63.6733 194.09 68.3744C194.09 68.3744 190.726 68.4857 182.899 60.3066L183.687 55.1504L188.838 53.4722H188.828Z" fill="#20FFB3"/>
<path d="M258.012 28.4802L254.093 31.3919C254.093 31.3919 251.184 33.7475 253.083 35.7594C254.982 37.7713 252.972 39.3485 252.972 39.3485C252.972 39.3485 250.063 42.4827 251.296 43.0488C252.528 43.615 253.982 45.182 254.093 46.1829C254.204 47.1838 253.649 47.75 253.305 47.6388C252.962 47.5276 247.821 45.8493 247.821 45.8493L243.236 36.548C243.236 36.548 241.559 28.8138 245.589 24.7799C249.619 20.7459 251.861 19.1789 251.972 17.2681C252.083 15.3573 258.466 1.57721 267.981 0.909944C277.495 0.242678 283.878 3.2656 287.12 5.73246C290.362 8.19932 297.311 12.3445 297.311 12.3445C297.311 12.3445 305.037 14.9225 306.269 22.6568C307.502 30.391 305.037 34.2025 305.037 34.2025L302.795 36.7806L299.321 48.9935L300.886 52.2389L303.239 58.9621L308.279 69.2744C308.279 69.2744 299.543 66.5851 298.987 63.3398C298.432 60.0944 297.866 58.406 297.866 58.406L298.2 49.4384C298.2 49.4384 299.876 40.0259 295.18 33.4139L293.614 38.0039C293.614 38.0039 290.029 27.358 282.979 24.7799L281.302 24.5575L282.646 30.4921L281.969 34.9708L271.112 23.7689C271.112 23.7689 261.931 25.6696 258.012 28.4802Z" fill="#20FFB3"/>
<path d="M286.787 320.975H245.135L248.72 224.596C248.72 224.596 255.214 229.974 264.173 228.852C273.132 227.73 279.848 230.642 282.312 226.163C284.777 221.684 290.15 214.283 290.15 214.283C290.15 214.283 297.543 225.94 299.997 227.063C302.452 228.185 320.601 228.63 320.601 228.63L336.943 227.063L347.689 318.064C347.689 318.064 311.642 318.508 311.642 317.841C311.642 317.174 300.219 258.222 300.219 258.222C300.219 258.222 298.654 251.276 294.402 251.499C290.15 251.721 290.594 274.358 290.594 274.358L286.787 320.975Z" fill="#20FFB3"/>
<path d="M77.2133 242.359L87.6263 306.74L85.6063 324.392H8.01874L7.18045 245.22C7.18045 245.22 37.5711 247.91 46.6408 247.576C55.7106 247.242 77.2032 242.369 77.2032 242.369L77.2133 242.359Z" fill="#20FFB3"/>
<path d="M274.697 99.645C274.697 99.645 283.595 100.818 288.463 99.4731C293.331 98.1285 302.734 95.2673 302.734 95.2673C302.734 95.2673 295.341 109.047 289.302 109.553C283.262 110.058 274.687 99.6349 274.687 99.6349L274.697 99.645Z" fill="#20FFB3"/>
<path d="M383.291 123.181C383.291 123.181 387.099 125.315 390.907 124.637C394.714 123.96 394.937 123.07 394.937 123.07C394.937 123.07 388.685 135.698 381.837 134.505C379.261 134.06 383.291 123.181 383.291 123.181Z" fill="#20FFB3"/>
<path d="M357.769 231.329C357.769 231.329 368.96 240.964 383.069 241.419C397.179 241.874 421.136 234.918 425.166 233.796L434.124 314.485H365.606L357.769 231.329Z" fill="#20FFB3"/>
<path d="M168.113 244.776L159.608 325.687H118.855L127.359 216.983C127.359 216.983 156.023 219.895 162.285 214.294C168.547 208.693 169.001 202.859 169.678 203.092C170.355 203.324 177.071 214.294 179.758 215.193C182.444 216.093 201.028 221.017 214.017 220.35L227.227 321.208H191.403L176.849 245.453C176.849 245.453 175.284 241.197 171.476 240.974C171.476 240.974 168.789 242.096 168.113 244.786V244.776Z" fill="#20FFB3"/>
<path d="M254.235 46.5469C254.235 46.5469 256.053 76.6345 274.596 77.4737C293.139 78.3128 298.2 57.2231 298.2 57.2231" stroke="#20259D" stroke-width="1.99994" stroke-linecap="round" stroke-linejoin="round"/>
<path d="M264.526 51.9456C265.536 51.9456 266.354 50.7777 266.354 49.3372C266.354 47.8966 265.536 46.7288 264.526 46.7288C263.517 46.7288 262.698 47.8966 262.698 49.3372C262.698 50.7777 263.517 51.9456 264.526 51.9456Z" fill="#20259D"/>
<path d="M281.565 50.9448C282.575 50.9448 283.393 49.777 283.393 48.3364C283.393 46.8959 282.575 45.728 281.565 45.728C280.555 45.728 279.737 46.8959 279.737 48.3364C279.737 49.777 280.555 50.9448 281.565 50.9448Z" fill="#20259D"/>
<path d="M274.152 68.1925C274.152 68.1925 274.232 65.5841 275.889 65.3415C277.545 65.0988 281.262 66.8479 280.787 67.7173C280.313 68.5868 276.677 68.9002 276.677 68.9002" stroke="#20259D" stroke-width="1.99994" stroke-linecap="round" stroke-linejoin="round"/>
<path d="M258.426 27.2973C258.426 27.2973 257.396 19.3912 262.618 19.0677C267.839 18.7442 281.979 35.6786 281.979 35.6786C281.979 35.6786 284.433 25.8718 278.111 19.462" stroke="#20259D" stroke-width="1.99994" stroke-linecap="round" stroke-linejoin="round"/>
<path d="M281.262 24.1328C281.262 24.1328 292.089 27.9342 293.513 38.9239C293.513 38.9239 296.907 34.8899 294.543 23.4958" stroke="#20259D" stroke-width="1.99994" stroke-linecap="round" stroke-linejoin="round"/>
<path d="M295.614 33.2319C295.614 33.2319 299.411 38.8228 298.674 48.6295C297.937 58.4363 303.946 38.8228 302.997 29.2283" stroke="#20259D" stroke-width="1.99994" stroke-linecap="round" stroke-linejoin="round"/>
<path d="M255.305 30.8965C255.305 30.8965 250.286 34.4552 252.699 36.1537C255.113 37.8522 253.406 38.6813 253.295 38.8835C253.184 39.0857 247.922 43.2712 253.608 44.0295" stroke="#20259D" stroke-width="1.99994" stroke-linecap="round" stroke-linejoin="round"/>
<path d="M252.053 18.6228C252.053 18.6228 253.103 5.65157 265.435 1.74908C265.435 1.74908 277.495 -2.05232 286.554 5.22695C295.614 12.5062 297.775 10.9189 303.149 16.621C308.522 22.3231 306.734 31.0683 306.734 31.0683" stroke="#20259D" stroke-width="1.99994" stroke-linecap="round" stroke-linejoin="round"/>
<path d="M249.205 20.5234C249.205 20.5234 240.983 27.1658 243.519 34.5461C246.054 41.9265 246.811 42.5634 246.811 42.5634" stroke="#20259D" stroke-width="1.99994" stroke-linecap="round" stroke-linejoin="round"/>
<path d="M279.606 40.3493C279.606 40.3493 281.504 38.0341 284.928 38.7722" stroke="#20259D" stroke-width="1.99994" stroke-linecap="round" stroke-linejoin="round"/>
<path d="M265.223 41.8861C265.223 41.8861 263.84 41.0571 259.214 41.5322" stroke="#20259D" stroke-width="1.99994" stroke-linecap="round" stroke-linejoin="round"/>
<path d="M256.527 60.6706C256.527 60.6706 251.316 59.6191 248.629 55.7672C246.246 52.3601 244.367 46.749 246.973 45.647C250.205 44.272 254.245 48.1037 254.245 48.1037" stroke="#20259D" stroke-width="1.99994" stroke-linecap="round" stroke-linejoin="round"/>
<path d="M302.755 36.9423C302.755 36.9423 306.522 32.4332 309.37 35.3854C312.218 38.3375 307.683 52.0468 301.361 52.8961" stroke="#20259D" stroke-width="1.99994" stroke-linecap="round" stroke-linejoin="round"/>
<path d="M302.623 57.6477C302.623 57.6477 305.047 66.8277 308.209 69.1429C311.37 71.4581 303.886 68.6172 300.724 64.8158" stroke="#20259D" stroke-width="1.99994" stroke-linecap="round" stroke-linejoin="round"/>
<path d="M296.937 61.2268L299.462 84.4295" stroke="#20259D" stroke-width="1.99994" stroke-linecap="round" stroke-linejoin="round"/>
<path d="M274.596 77.4736L276.071 88.6453" stroke="#20259D" stroke-width="1.99994" stroke-linecap="round" stroke-linejoin="round"/>
<path d="M273.121 82.5288C273.121 82.5288 261.002 91.3852 284.181 108.047C284.181 108.117 287.029 110.028 289.392 109.786C291.604 109.563 293.978 107.41 293.978 107.41C293.978 107.41 312.228 90.0911 304.724 78.9397" stroke="#20259D" stroke-width="1.99994" stroke-linecap="round" stroke-linejoin="round"/>
<path d="M275.333 99.5947C275.333 99.5947 289.079 101.89 302.593 95.6416" stroke="#20259D" stroke-width="1.99994" stroke-linecap="round" stroke-linejoin="round"/>
<path d="M265.86 80.2134C265.86 80.2134 245.003 87.1691 234.883 110.908C224.773 134.636 218.764 173.863 220.662 177.665" stroke="#20259D" stroke-width="1.99994" stroke-linecap="round" stroke-linejoin="round"/>
<path d="M223.187 183.67C223.187 183.67 226.662 195.064 237.095 194.741C247.528 194.427 255.113 189.999 255.113 189.999" stroke="#20259D" stroke-width="1.99994" stroke-linecap="round" stroke-linejoin="round"/>
<path d="M233.297 168.485C233.297 168.485 234.348 164.582 232.661 157.202C230.974 149.822 239.61 156.777 239.61 162.479" stroke="#20259D" stroke-width="1.99994" stroke-linecap="round" stroke-linejoin="round"/>
<path d="M237.095 167.534C237.095 167.534 240.68 162.894 245.417 160.255C248.266 158.678 252.568 158.334 253.851 158.728C257.436 159.841 254.275 166.271 258.062 167.747C261.85 169.223 264.072 180.506 256.487 185.46C251.275 188.867 241.842 185.773 238.055 183.245" stroke="#20259D" stroke-width="1.99994" stroke-linecap="round" stroke-linejoin="round"/>
<path d="M322.641 159.416L323.853 127.044C323.853 127.044 325.591 120.876 318.48 120.876C318.48 120.876 245.781 120.088 240.731 120.876C235.681 121.665 236.62 125.78 236.62 125.78L240.882 162.318" stroke="#20259D" stroke-width="1.99994" stroke-linecap="round" stroke-linejoin="round"/>
<path d="M261.9 176.077H304.734" stroke="#20259D" stroke-width="1.99994" stroke-linecap="round" stroke-linejoin="round"/>
<path d="M231.722 166.897C231.722 166.897 226.51 173.54 231.803 180.182" stroke="#20259D" stroke-width="1.99994" stroke-linecap="round" stroke-linejoin="round"/>
<path d="M325.49 161.731C325.49 161.731 315.481 156.039 311.37 157.93C307.259 159.82 308.108 166.372 308.108 166.372C308.108 166.372 308.794 172.65 306.734 173.439C304.674 174.227 303.997 179.656 307.108 182.882C312.299 188.26 323.702 185.47 323.702 185.47" stroke="#20259D" stroke-width="1.99994" stroke-linecap="round" stroke-linejoin="round"/>
<path d="M323.853 151.712C323.853 151.712 327.964 150.135 328.752 154.877C329.54 159.618 330.176 165.472 331.751 167.534" stroke="#20259D" stroke-width="1.99994" stroke-linecap="round" stroke-linejoin="round"/>
<path d="M348.012 187.087C347.265 188.442 346.336 189.625 345.184 190.525C336.468 197.39 316.864 192.749 315.47 189.261" stroke="#20259D" stroke-width="1.99994" stroke-linecap="round" stroke-linejoin="round"/>
<path d="M305.148 72.833C305.148 72.833 330.014 82.1141 338.65 103.628C342.124 112.293 344.912 125.931 346.709 136.891" stroke="#20259D" stroke-width="1.99994" stroke-linecap="round" stroke-linejoin="round"/>
<path d="M333.176 164.37C333.176 164.37 334.438 180.607 323.904 187.785" stroke="#20259D" stroke-width="1.99994" stroke-linecap="round" stroke-linejoin="round"/>
<path d="M244.68 196.955L242.781 217.519C242.781 217.519 242.781 224.474 252.578 227.012C262.375 229.54 277.545 230.49 282.292 226.375C287.039 222.26 289.877 213.717 289.877 213.717C289.877 213.717 298.412 227.002 301.26 227.639C304.108 228.276 331.287 230.803 340.134 225.738C348.982 220.673 340.134 195.367 340.134 195.367" stroke="#20259D" stroke-width="1.99994" stroke-linecap="round" stroke-linejoin="round"/>
<path d="M288.716 193.447C290.272 193.447 291.534 192.184 291.534 190.626C291.534 189.068 290.272 187.805 288.716 187.805C287.159 187.805 285.898 189.068 285.898 190.626C285.898 192.184 287.159 193.447 288.716 193.447Z" stroke="#20259D" stroke-width="1.99994" stroke-linecap="round" stroke-linejoin="round"/>
<path d="M248.468 226.8L245.518 320.864" stroke="#20259D" stroke-width="1.99994" stroke-linecap="round" stroke-linejoin="round"/>
<path d="M286.817 320.025L292.291 255.917C292.291 255.917 293.129 251.701 296.089 251.701C299.048 251.701 301.563 260.982 301.563 260.982L311.673 317.922" stroke="#20259D" stroke-width="1.99994" stroke-linecap="round" stroke-linejoin="round"/>
<path d="M337.003 227.234L347.507 315.799" stroke="#20259D" stroke-width="1.99994" stroke-linecap="round" stroke-linejoin="round"/>
<path d="M287.241 227.649C287.241 227.649 287.14 243.047 291.776 248.324" stroke="#20259D" stroke-width="1.99994" stroke-linecap="round" stroke-linejoin="round"/>
<path d="M297.038 247.364L296.513 226.062" stroke="#20259D" stroke-width="1.99994" stroke-linecap="round" stroke-linejoin="round"/>
<path d="M380.332 73.6117C381.42 73.6117 382.302 72.1768 382.302 70.4068C382.302 68.6368 381.42 67.2019 380.332 67.2019C379.244 67.2019 378.363 68.6368 378.363 70.4068C378.363 72.1768 379.244 73.6117 380.332 73.6117Z" fill="#20259D"/>
<path d="M363.253 62.5916C363.253 62.5916 369.828 94.0036 381.978 95.1562C394.129 96.3087 402.188 82.3265 402.188 82.3265" stroke="#20259D" stroke-width="1.99994" stroke-linecap="round" stroke-linejoin="round"/>
<path d="M379.352 86.219C379.352 86.219 382.635 88.4128 387.018 83.5903" stroke="#20259D" stroke-width="1.99994" stroke-linecap="round" stroke-linejoin="round"/>
<path d="M375.737 63.7442C375.737 63.7442 376.393 60.6707 382.968 61.7727" stroke="#20259D" stroke-width="1.99994" stroke-linecap="round" stroke-linejoin="round"/>
<path d="M263.062 21.5244C263.062 21.5244 261.113 23.4757 261.163 26.6401C261.163 26.6401 262.537 24.5878 264.9 24.1126" stroke="#20259D" stroke-width="1.3333" stroke-linecap="round" stroke-linejoin="round"/>
<path d="M363.081 57.0006C363.081 57.0006 360.122 49.7618 365.546 49.7618C370.969 49.7618 386.463 61.2165 386.463 61.2165C386.463 61.2165 386.685 52.5522 379.888 47.0725" stroke="#20259D" stroke-width="1.99994" stroke-linecap="round" stroke-linejoin="round"/>
<path d="M385.705 55.191C385.705 55.191 395.674 61.7727 399.613 71.9636C399.613 71.9636 402.895 60.7819 394.795 51.248" stroke="#20259D" stroke-width="1.99994" stroke-linecap="round" stroke-linejoin="round"/>
<path d="M400.209 63.2083C400.209 63.2083 406.612 73.0049 406.289 79.3642C406.289 79.3642 410.995 70.8717 407.279 53.2195" stroke="#20259D" stroke-width="1.99994" stroke-linecap="round" stroke-linejoin="round"/>
<path d="M408.592 58.8912C408.592 58.8912 410.814 55.5245 413.52 56.667C418.57 58.8103 415.672 67.5758 413.026 71.0536" stroke="#20259D" stroke-width="1.99994" stroke-linecap="round" stroke-linejoin="round"/>
<path d="M366.374 52.0669C365.556 53.4621 365.637 56.2626 365.637 56.2626C365.637 56.2626 367.111 54.8674 367.768 54.4529" stroke="#20259D" stroke-width="1.3333" stroke-linecap="round" stroke-linejoin="round"/>
<path d="M360.516 60.2358C360.516 60.2358 349.346 70.9829 362.819 73.8339" stroke="#20259D" stroke-width="1.99994" stroke-linecap="round" stroke-linejoin="round"/>
<path d="M357.991 57.0007C357.991 57.0007 354.87 43.1903 363.415 34.3035C371.959 25.4268 381.645 19.3406 399.067 24.4361C416.49 29.5315 421.408 44.3327 421.903 60.9436C422.398 77.5545 419.772 113.071 456.233 142.512C456.233 142.512 438.659 139.55 433.235 130.511" stroke="#20259D" stroke-width="1.99994" stroke-linecap="round" stroke-linejoin="round"/>
<path d="M408.915 79.8596L412.207 99.0486" stroke="#20259D" stroke-width="1.99994" stroke-linecap="round" stroke-linejoin="round"/>
<path d="M391.008 93.5083C391.008 93.5083 394.624 102.557 393.139 109.128" stroke="#20259D" stroke-width="1.99994" stroke-linecap="round" stroke-linejoin="round"/>
<path d="M415.49 100.252C416.581 100.474 431.256 103.325 431.478 131.826C431.7 160.326 412.419 199.139 405.198 199.796C397.977 200.453 364.132 191.9 364.132 191.9C364.132 191.9 359.637 172.711 367.414 169.971L391.614 173.044" stroke="#20259D" stroke-width="1.99994" stroke-linecap="round" stroke-linejoin="round"/>
<path d="M409.794 119.987C409.794 119.987 401.693 146.96 402.784 157.262" stroke="#20259D" stroke-width="1.99994" stroke-linecap="round" stroke-linejoin="round"/>
<path d="M396.654 171.953C396.654 171.953 402.784 171.295 407.824 174.804" stroke="#20259D" stroke-width="1.99994" stroke-linecap="round" stroke-linejoin="round"/>
<path d="M385.261 115.164C385.261 115.164 377.373 135.556 382.847 135.121C388.321 134.687 404.097 112.758 404.097 112.758" stroke="#20259D" stroke-width="1.99994" stroke-linecap="round" stroke-linejoin="round"/>
<path d="M382.958 122.838C382.958 122.838 386.877 127.468 395.856 123.191" stroke="#20259D" stroke-width="1.99994" stroke-linecap="round" stroke-linejoin="round"/>
<path d="M388.766 101.344C388.766 101.344 373.656 107.925 371.899 112.748" stroke="#20259D" stroke-width="1.99994" stroke-linecap="round" stroke-linejoin="round"/>
<path d="M359.142 130.673C359.142 130.673 350.76 126.73 350.931 116.205C351.093 105.681 358.324 107.652 358.324 107.652C358.324 107.652 360.294 96.4704 369.172 96.1368C369.172 96.1368 371.363 95.7829 371.363 98.4924C371.363 101.202 366.465 101.728 366.384 106.409" stroke="#20259D" stroke-width="1.99994" stroke-linecap="round" stroke-linejoin="round"/>
<path d="M367.849 108.805C368.182 108.805 371.687 111.434 370.475 119.107" stroke="#20259D" stroke-width="1.99994" stroke-linecap="round" stroke-linejoin="round"/>
<path d="M350.436 128.317C350.436 128.317 334.337 162.631 345.841 170.638" stroke="#20259D" stroke-width="1.99994" stroke-linecap="round" stroke-linejoin="round"/>
<path d="M351.749 131.825C351.749 131.825 352.628 136.87 360.728 135.991" stroke="#20259D" stroke-width="1.99994" stroke-linecap="round" stroke-linejoin="round"/>
<path d="M366.425 132.917C366.425 132.917 367.515 136.648 366.202 141.905C364.889 147.163 360.072 170.851 360.072 170.851" stroke="#20259D" stroke-width="1.99994" stroke-linecap="round" stroke-linejoin="round"/>
<path d="M362.597 172.438L357.092 168.576C357.092 168.576 350.517 160.599 347.972 161.256C345.427 161.913 348.75 167.302 348.83 167.625L350.962 170.79L346.275 170.214" stroke="#20259D" stroke-width="1.99994" stroke-linecap="round" stroke-linejoin="round"/>
<path d="M341.235 164.825C341.235 164.825 338.064 167.454 339.377 169.536C340.69 171.619 340.033 176.553 340.912 178.858C341.791 181.163 342.336 189.271 353.285 187.522C353.285 187.522 359.092 186.643 363.364 189.605" stroke="#20259D" stroke-width="1.99994" stroke-linecap="round" stroke-linejoin="round"/>
<path d="M361.94 160.76L365.223 169.971" stroke="#20259D" stroke-width="1.99994" stroke-linecap="round" stroke-linejoin="round"/>
<path d="M364.122 191.9C364.889 193.325 355.688 228.518 355.688 228.518C355.688 228.518 369.485 249.568 415.49 237.395L430.276 231.147C430.276 231.147 419.873 203.415 421.843 174.793" stroke="#20259D" stroke-width="1.99994" stroke-linecap="round" stroke-linejoin="round"/>
<path d="M378.696 249.345L394.462 314.323" stroke="#20259D" stroke-width="1.99994" stroke-linecap="round" stroke-linejoin="round"/>
<path d="M424.802 233.665L434.003 313.12" stroke="#20259D" stroke-width="1.99994" stroke-linecap="round" stroke-linejoin="round"/>
<path d="M358.324 231.804L365.223 310.713" stroke="#20259D" stroke-width="1.99994" stroke-linecap="round" stroke-linejoin="round"/>
<path d="M143.206 44.8484C143.206 45.3539 145.226 71.074 163.356 71.2357C181.485 71.3975 183.677 58.1229 183.677 58.1229" stroke="#20259D" stroke-width="1.99994" stroke-linecap="round" stroke-linejoin="round"/>
<path d="M167.89 43.5845C168.911 43.5845 169.739 42.2673 169.739 40.6425C169.739 39.0176 168.911 37.7004 167.89 37.7004C166.87 37.7004 166.042 39.0176 166.042 40.6425C166.042 42.2673 166.87 43.5845 167.89 43.5845Z" fill="#20259D"/>
<path d="M150.882 44.6058C151.903 44.6058 152.73 43.2886 152.73 41.6637C152.73 40.0389 151.903 38.7217 150.882 38.7217C149.861 38.7217 149.034 40.0389 149.034 41.6637C149.034 43.2886 149.861 44.6058 150.882 44.6058Z" fill="#20259D"/>
<path d="M157.114 58.0118C157.366 57.8399 165.345 56.839 167.103 57.759C168.86 58.679 164.083 61.2874 164.083 61.2874" stroke="#20259D" stroke-width="1.99994" stroke-linecap="round" stroke-linejoin="round"/>
<path d="M164.032 32.0692C164.032 32.0692 167.163 29.8248 172.314 31.5132" stroke="#20259D" stroke-width="1.99994" stroke-linecap="round" stroke-linejoin="round"/>
<path d="M149.7 32.969C149.7 32.969 145.671 31.2907 143.428 33.98" stroke="#20259D" stroke-width="1.99994" stroke-linecap="round" stroke-linejoin="round"/>
<path d="M145.448 23.5465C145.448 23.5465 154.629 31.6143 163.588 33.8587C163.588 33.8587 160.346 23.8801 159.002 21.6458" stroke="#20259D" stroke-width="1.99994" stroke-linecap="round" stroke-linejoin="round"/>
<path d="M160.507 24.6686C160.507 24.6686 172.597 28.3082 179.99 34.5866C179.99 34.5866 179.818 28.7025 175.788 24.4967" stroke="#20259D" stroke-width="1.99994" stroke-linecap="round" stroke-linejoin="round"/>
<path d="M138.166 26.2458C138.166 26.2458 132.329 33.7779 135.288 38.469C135.732 39.1767 140.186 42.604 140.186 42.604" stroke="#20259D" stroke-width="1.99994" stroke-linecap="round" stroke-linejoin="round"/>
<path d="M139.51 20.473C139.51 20.473 135.146 14.7608 143.034 9.87762C150.923 4.99444 160.891 -4.91345 180.374 6.51096C180.374 6.51096 199.402 10.9897 195.827 33.1814" stroke="#20259D" stroke-width="1.99994" stroke-linecap="round" stroke-linejoin="round"/>
<path d="M181.495 36.7198C181.495 36.7198 184.404 43.2206 183.515 49.7214C183.515 49.7214 190.908 42.4927 189.393 32.4028" stroke="#20259D" stroke-width="1.99994" stroke-linecap="round" stroke-linejoin="round"/>
<path d="M190.343 36.3256C190.343 36.3256 192.241 33.97 195.493 35.6482C198.746 37.3265 197.958 50.2169 188.888 53.2398" stroke="#20259D" stroke-width="1.99994" stroke-linecap="round" stroke-linejoin="round"/>
<path d="M188.888 56.9502C188.888 56.9502 189.565 63.5015 194.09 68.2128C198.614 72.9241 186.535 65.6954 185.192 63.3398" stroke="#20259D" stroke-width="1.99994" stroke-linecap="round" stroke-linejoin="round"/>
<path d="M142.196 29.6327C142.196 29.6327 139.621 33.1914 141.519 38.4588" stroke="#20259D" stroke-width="1.99994" stroke-linecap="round" stroke-linejoin="round"/>
<path d="M156.861 73.0859L148.357 86.9772L159.103 81.3762L165.82 82.4984L159.78 73.3084L156.861 73.0859Z" stroke="#20259D" stroke-width="1.99994" stroke-linecap="round" stroke-linejoin="round"/>
<path d="M169.183 82.2759L182.838 67.7073L186.202 84.7428L177.021 81.1537L169.183 82.2759Z" stroke="#20259D" stroke-width="1.99994" stroke-linecap="round" stroke-linejoin="round"/>
<path d="M163.356 71.2358L163.699 79.4756" stroke="#20259D" stroke-width="1.99994" stroke-linecap="round" stroke-linejoin="round"/>
<path d="M152.276 75.0977L135.591 84.2877C135.591 84.2877 126.632 89.6663 122.38 99.7562C113.775 120.158 100.675 164.997 109.614 168.121" stroke="#20259D" stroke-width="1.99994" stroke-linecap="round" stroke-linejoin="round"/>
<path d="M187.09 71.064C187.09 71.064 211.492 80.6989 217.986 93.0332C224.48 105.368 226.551 126.396 227.833 131.836" stroke="#20259D" stroke-width="1.99994" stroke-linecap="round" stroke-linejoin="round"/>
<path d="M186.202 156.464C186.202 156.464 163.143 157.364 159.114 157.586C155.084 157.808 154.185 153.552 154.185 153.552L155.972 97.067C155.972 93.0331 158.992 92.5883 158.992 92.5883L200.412 90.5663C200.412 90.5663 203.886 89.8889 203.654 94.6002L202.816 127.377" stroke="#20259D" stroke-width="1.99994" stroke-linecap="round" stroke-linejoin="round"/>
<path d="M199.634 136.122C199.968 133.939 201.311 129.733 201.311 129.733C201.311 129.733 201.927 127.215 204.22 128.055C204.785 128.267 207.017 129.399 206.512 133.099C206.007 136.8 205.836 139.155 207.189 141.501" stroke="#20259D" stroke-width="1.99994" stroke-linecap="round" stroke-linejoin="round"/>
<path d="M199.796 137.295C199.796 137.295 193.251 138.134 192.403 139.813C191.554 141.491 190.888 145.697 190.555 148.386C190.221 151.075 187.363 155.109 187.535 157.97C187.706 160.831 191.736 165.705 200.129 164.522C208.522 163.339 211.552 157.627 211.552 157.627" stroke="#20259D" stroke-width="1.99994" stroke-linecap="round" stroke-linejoin="round"/>
<path d="M194.09 165.037C194.423 165.876 195.605 171.588 202.826 171.588C210.047 171.588 220.622 169.405 220.622 169.405" stroke="#20259D" stroke-width="1.99994" stroke-linecap="round" stroke-linejoin="round"/>
<path d="M209.199 139.651C209.199 139.651 212.219 138.64 215.249 146.374" stroke="#20259D" stroke-width="1.99994" stroke-linecap="round" stroke-linejoin="round"/>
<path d="M206.351 116.569L203.099 124.748" stroke="#20259D" stroke-width="1.99994" stroke-linecap="round" stroke-linejoin="round"/>
<path d="M117.007 169.243C118.017 169.92 126.077 169.243 132.46 164.532C138.843 159.82 148.913 146.718 148.913 146.718C148.913 146.718 139.51 136.971 139.843 122.848L124.168 136.517" stroke="#20259D" stroke-width="1.99994" stroke-linecap="round" stroke-linejoin="round"/>
<path d="M132.682 114.103L134.47 126.427" stroke="#20259D" stroke-width="1.99994" stroke-linecap="round" stroke-linejoin="round"/>
<path d="M140.297 127.104C140.297 127.104 142.762 116.347 148.135 111.191C153.508 106.035 155.75 106.257 155.75 106.257" stroke="#20259D" stroke-width="1.99994" stroke-linecap="round" stroke-linejoin="round"/>
<path d="M144.772 139.651C144.772 139.651 152.165 140.995 154.175 137.629" stroke="#20259D" stroke-width="1.99994" stroke-linecap="round" stroke-linejoin="round"/>
<path d="M132.288 165.209L128.198 196.479L124.723 217.327C124.723 217.327 146.216 220.804 162.335 214.748C162.335 214.748 169.052 207.014 170.062 202.647C170.062 202.647 175.102 212.393 180.808 216.093C186.515 219.793 219.097 220.683 219.097 220.683C219.097 220.683 215.067 183.7 213.724 170.921" stroke="#20259D" stroke-width="1.99994" stroke-linecap="round" stroke-linejoin="round"/>
<path d="M169.183 163.865V187.563" stroke="#20259D" stroke-width="1.3333" stroke-linecap="round" stroke-linejoin="round"/>
<path d="M127.087 218.327L119.694 325.242" stroke="#20259D" stroke-width="1.99994" stroke-linecap="round" stroke-linejoin="round"/>
<path d="M160.002 323.887L167.729 245.716C167.729 245.716 168.173 241.399 171.203 241.399C174.233 241.399 176.132 241.176 177.475 247.9L191.13 320.965" stroke="#20259D" stroke-width="1.99994" stroke-linecap="round" stroke-linejoin="round"/>
<path d="M213.572 220.562L226.945 318.286" stroke="#20259D" stroke-width="1.99994" stroke-linecap="round" stroke-linejoin="round"/>
<path d="M165.82 215.638C165.365 217.327 165.709 231.551 168.284 237.941" stroke="#20259D" stroke-width="1.3333" stroke-linecap="round" stroke-linejoin="round"/>
<path d="M174.779 219.5V237.324" stroke="#20259D" stroke-width="1.3333" stroke-linecap="round" stroke-linejoin="round"/>
<path d="M63.0734 59.0024C65.2146 60.4482 66.6286 62.9049 66.6286 65.6953C66.6286 70.1539 63.0229 73.7632 58.5688 73.7632C54.1148 73.7632 50.5091 70.1539 50.5091 65.6953C50.5091 61.2367 54.1148 57.6274 58.5688 57.6274" stroke="#20259D" stroke-width="1.99994" stroke-linecap="round" stroke-linejoin="round"/>
<path d="M74.9105 73.7531C79.3618 73.7531 82.9702 70.141 82.9702 65.6853C82.9702 61.2295 79.3618 57.6174 74.9105 57.6174C70.4592 57.6174 66.8508 61.2295 66.8508 65.6853C66.8508 70.141 70.4592 73.7531 74.9105 73.7531Z" stroke="#20259D" stroke-width="1.99994" stroke-linecap="round" stroke-linejoin="round"/>
<path d="M59.6596 68.3847C60.5856 68.3847 61.3362 67.1037 61.3362 65.5235C61.3362 63.9433 60.5856 62.6624 59.6596 62.6624C58.7337 62.6624 57.983 63.9433 57.983 65.5235C57.983 67.1037 58.7337 68.3847 59.6596 68.3847Z" fill="#20259D"/>
<path d="M73.0117 68.4049C73.9377 68.4049 74.6883 67.1239 74.6883 65.5438C74.6883 63.9636 73.9377 62.6826 73.0117 62.6826C72.0858 62.6826 71.3351 63.9636 71.3351 65.5438C71.3351 67.1239 72.0858 68.4049 73.0117 68.4049Z" fill="#20259D"/>
<path d="M70.8806 53.0274C70.8806 53.0274 75.9205 49.8933 80.617 52.805" stroke="#20259D" stroke-width="1.99994" stroke-linecap="round" stroke-linejoin="round"/>
<path d="M63.7198 53.0274C63.7198 53.0274 58.6799 49.8933 53.9835 52.805" stroke="#20259D" stroke-width="1.99994" stroke-linecap="round" stroke-linejoin="round"/>
<path d="M79.6171 73.3084C79.6171 73.3084 78.7182 95.7225 58.3467 95.9449C37.9751 96.1673 36.3995 72.8635 36.3995 72.8635" stroke="#20259D" stroke-width="1.99994" stroke-linecap="round" stroke-linejoin="round"/>
<path d="M69.3152 82.6702L52.8624 83.1757C52.8624 83.1757 54.3774 87.0377 61.2554 87.2096C61.2554 87.2096 64.5278 87.3815 66.4569 84.7731" stroke="#20259D" stroke-width="1.99994" stroke-linecap="round" stroke-linejoin="round"/>
<path d="M79.2232 41.6536C79.2232 41.6536 64.447 59.3058 56.7206 61.6614L65.2853 44.0092" stroke="#20259D" stroke-width="1.99994" stroke-linecap="round" stroke-linejoin="round"/>
<path d="M63.2754 47.6187C63.2754 47.6187 51.8524 55.4338 46.8226 65.3518C46.8226 65.3518 44.3078 57.7894 49.1759 48.7105" stroke="#20259D" stroke-width="1.99994" stroke-linecap="round" stroke-linejoin="round"/>
<path d="M46.1459 56.9503C46.1459 56.9503 38.7528 64.0071 38.9245 68.7184C38.9245 68.7184 35.3996 62.1671 39.4295 54.261" stroke="#20259D" stroke-width="1.99994" stroke-linecap="round" stroke-linejoin="round"/>
<path d="M38.2478 56.9503C38.2478 56.9503 31.7031 50.8943 30.3598 60.6506C29.0165 70.4068 33.8846 74.097 36.5712 74.4306" stroke="#20259D" stroke-width="1.99994" stroke-linecap="round" stroke-linejoin="round"/>
<path d="M76.8194 46.0818C76.8194 46.0818 81.8593 50.5606 81.7482 59.417" stroke="#20259D" stroke-width="1.99994" stroke-linecap="round" stroke-linejoin="round"/>
<path d="M50.1758 63.8352L39.6719 56.5256" stroke="#20259D" stroke-width="2.66659" stroke-linecap="round" stroke-linejoin="round"/>
<path d="M83.4247 45.6875C83.4247 45.6875 93.9489 51.056 89.9695 57.6275C86.3638 63.5925 84.9296 64.3507 84.9296 64.3507" stroke="#20259D" stroke-width="1.99994" stroke-linecap="round" stroke-linejoin="round"/>
<path d="M84.263 40.6426C84.263 40.6426 81.9098 29.0463 70.9917 28.8744C70.9917 28.8744 61.7604 20.3011 50.0041 22.3231C38.2478 24.3451 11.0487 35.1023 25.6532 67.04C25.6532 67.04 34.7229 82.003 24.3907 93.1848C24.3907 93.1848 34.5512 88.6453 36.5611 84.6114" stroke="#20259D" stroke-width="1.99994" stroke-linecap="round" stroke-linejoin="round"/>
<path d="M55.8823 95.783C55.8823 95.783 51.6807 110.574 52.8624 113.102" stroke="#20259D" stroke-width="1.99994" stroke-linecap="round" stroke-linejoin="round"/>
<path d="M37.5812 81.6592L32.5414 98.634" stroke="#20259D" stroke-width="1.99994" stroke-linecap="round" stroke-linejoin="round"/>
<path d="M31.3597 104.69C30.8547 104.185 50.1657 136.122 58.9021 135.455C67.6386 134.788 58.9021 115.285 58.9021 115.285" stroke="#20259D" stroke-width="1.99994" stroke-linecap="round" stroke-linejoin="round"/>
<path d="M29.1781 96.7841C29.1781 96.7841 12.3819 93.2556 5.83715 108.724C-0.707599 124.193 7.85713 176.472 7.85713 176.472" stroke="#20259D" stroke-width="1.99994" stroke-linecap="round" stroke-linejoin="round"/>
<path d="M76.9305 206.893L73.345 184.256" stroke="#20259D" stroke-width="1.99994" stroke-linecap="round" stroke-linejoin="round"/>
<path d="M8.85705 182.912C8.85705 182.912 -3.23256 238.497 2.1406 242.976C7.51376 247.455 71.1029 251.944 81.8492 238.497L81.0109 233.675" stroke="#20259D" stroke-width="1.99994" stroke-linecap="round" stroke-linejoin="round"/>
<path d="M13.8969 136.294C13.8969 136.294 42.4494 187.734 59.2355 186.39C76.0215 185.045 91.8178 152.43 91.8178 152.43L77.3749 137.861L54.0845 157.586" stroke="#20259D" stroke-width="1.99994" stroke-linecap="round" stroke-linejoin="round"/>
<path d="M50.7313 152.43L37.5206 150.408" stroke="#20259D" stroke-width="1.99994" stroke-linecap="round" stroke-linejoin="round"/>
<path d="M46.9236 147.051L38.4195 128.226" stroke="#20259D" stroke-width="1.99994" stroke-linecap="round" stroke-linejoin="round"/>
<path d="M80.7382 139.206L85.8891 131.36C85.8891 131.36 83.758 123.404 87.0102 118.692C87.0102 118.692 88.909 117.681 89.4746 119.248C90.0402 120.816 90.0301 126.649 92.0501 126.983C94.0701 127.316 100.675 113.536 103.473 110.625C106.271 107.713 109.068 109.169 107.503 113.425C105.937 117.681 103.917 121.665 103.917 121.665C103.917 121.665 105.039 123.849 105.261 125.193C105.483 126.538 108.897 128.893 108.119 135.283C107.341 141.673 99.8876 146.263 96.3122 148.285C92.7369 150.307 89.313 149.912 89.313 149.912" stroke="#20259D" stroke-width="1.99994" stroke-linecap="round" stroke-linejoin="round"/>
<path d="M58.1245 103.123C58.8011 103.345 74.9206 113.213 79.6171 135.394" stroke="#20259D" stroke-width="1.99994" stroke-linecap="round" stroke-linejoin="round"/>
<path d="M65.962 249.477L65.0631 274.135L59.9121 324.787" stroke="#20259D" stroke-width="1.99994" stroke-linecap="round" stroke-linejoin="round"/>
<path d="M7.96823 245.898V322.775" stroke="#20259D" stroke-width="1.99994" stroke-linecap="round" stroke-linejoin="round"/>
<path d="M77.3244 242.42L87.6768 307.084L85.6669 324.342" stroke="#20259D" stroke-width="1.99994" stroke-linecap="round" stroke-linejoin="round"/>
<path d="M84.768 169.243C84.768 169.243 89.8079 197.824 89.1312 202.859C88.4545 207.894 87.1718 210.482 87.1718 210.482" stroke="#20259D" stroke-width="1.99994" stroke-linecap="round" stroke-linejoin="round"/>
<path d="M84.7478 208.319C83.3238 213.01 72.9006 219.359 73.7793 213.96C73.9207 213.07 76.5265 208.956 78.3748 206.347C80.8493 202.849 85.9598 204.295 84.7478 208.319Z" stroke="#20259D" stroke-width="1.99994" stroke-linecap="round" stroke-linejoin="round"/>
<path d="M85.1619 207.904C85.1619 207.904 88.8181 211.857 88.505 219.733C88.1919 227.609 82.1724 233.462 79.1626 231.673C76.1528 229.883 74.5873 221.007 76.8699 215.638" stroke="#20259D" stroke-width="1.99994" stroke-linecap="round" stroke-linejoin="round"/>
</g>
<defs>
<clipPath id="clip0_916_212">
<rect width="457" height="326" fill="white"/>
</clipPath>
</defs>
</svg>
