<?xml version="1.0" encoding="utf-8"?>
<!-- Generator: Adobe Illustrator 27.5.0, SVG Export Plug-In . SVG Version: 6.00 Build 0)  -->
<svg version="1.1" id="レイヤー_1" xmlns="http://www.w3.org/2000/svg" xmlns:xlink="http://www.w3.org/1999/xlink" x="0px"
	 y="0px" viewBox="0 0 498 496" style="enable-background:new 0 0 498 496;" xml:space="preserve">
<style type="text/css">
	.st0{fill:#FFFFFF;}
	.st1{clip-path:url(#SVGID_00000168835500528606175510000006347614626598801033_);}
	.st2{fill:#20FFB3;}
	.st3{fill:#20259D;}
	.st4{fill:none;stroke:#20259D;stroke-width:1.9999;stroke-linecap:round;stroke-miterlimit:10;}
	.st5{fill:none;stroke:#20259D;stroke-width:1.9999;stroke-linecap:round;stroke-linejoin:round;}
	.st6{clip-path:url(#SVGID_00000061454257586713983730000009240452442912866950_);}
	.st7{fill:none;stroke:#20259D;stroke-width:1.9998;stroke-linecap:round;stroke-miterlimit:10;}
	.st8{fill:none;stroke:#20259D;stroke-width:1.9998;stroke-linecap:round;stroke-linejoin:round;}
</style>
<g>
	<path class="st0" d="M478.4,98.7c0,0,10.6-23.4,15.5-33.5s3.2-10.7,3.2-10.7s-9.1-5.7-12.7-6.9s-6.7-0.5-6.7-0.5l-5,8.3
		c0,0-9.2,23-10.6,24.4c-1.4,1.4-1.5-1.7-1.7-3.7c-0.2-2.1-0.9-2.9-1.8-2.9s-3.6,6.5-3.6,6.5s-1.7,7.2-3.2,3.8
		c-1.4-3.4-10.6-7.3-10.6-7.3s2.4-1.5,5.4-12.1c3-10.6-3.2-18.7-5-22.3c-1.8-3.6-1.4-10.7-1.4-10.7s5.6-6.5,5.2-12.5
		c-0.4-6-13.6-9.2-16.6-10.1s-9.7-8.4-19.7-7.6s-12.3,9.9-13.1,12.1c-0.7,2.2-19.2,10.7-18.7,23.4c0.5,12.7,10.6,25.9,10.6,25.9
		c0.3,7.2-4,12.7-4,12.7c6.3,0,9.6-5.3,9.6-5.3c3.3,8.7,4.6,7.8,4.6,7.8l0.4,4.1c-10.9,4.2-14.9,15.7-14.9,15.7
		c-13.5,15.4-13,21.1-13,21.1s1.1,29.4,2.4,42.4c1.4,13,4.8,17.9,4.8,17.9l2.9,8.1l-3.2,16.5c0,0-2.7,10.1-2.9,12.1s1.8,2.4,1.8,2.4
		l23.4,8.9c0,0,18.8,9.2,26.4,6.2c7.6-3.1,12.3-23.8,12.3-23.8c2.5-0.2,6.4-2,6.4-2s6.2,10.2,7.4,11.7c1.2,1.5,2.8,1,2.8,1l1.6,0
		c0,0,0.4,0.6,0.4,1.2s-1,3.7,4.7,3.7s8.8-6,10-13.6c1.2-7.6-3.2-12.7-3.2-12.7c5.1-7.9,7.7-23.5,7.7-23.5c0.6,1.7,2.1,1.5,2.1,1.5
		c5.7-1,3.4-14.6,3.4-14.6s6.2-4.5,6.2-7s-6.1-4.7-6.1-4.7l-11.6-27.9l-4.1-12.1C470.8,108.7,478.4,98.7,478.4,98.7z"/>
	<path class="st0" d="M474.4,433c-5-3.9-22.9-14.6-22.9-14.6c-10.8,4.9-24,0.2-24,0.2s-3.4,13.6-2.2,20.5s4.2,7.3,4.2,7.3
		s45.5,5.4,50.5,5.2c5.1-0.2,5.9-3.2,6.4-7.7C486.9,439.4,479.4,436.9,474.4,433z"/>
	<path class="st0" d="M421.7,457.3l-7.8-22.3c-13.3,10.5-27.4,5.2-27.4,5.2l-1.2,14c0,0,3.3,13.5,14,23.3
		c10.6,9.8,15.3,10.7,22.4,10.4c7.1-0.3,7.6-6,7.4-10.2C428.6,473.4,421.7,457.3,421.7,457.3z"/>
	<path class="st0" d="M292.5,213.8l-5.8-8l-0.1-10.6c4.3,5.5,11.6,10.3,11.6,10.3c-4.3-3-5.7-20.2-5.7-20.2
		c4.1-3.4,3.7-14.4,3.7-14.4s1.8-5.7,1.1-10.9c-0.7-5.2-6.1-22.4-24.2-24.2S250.1,146,250.1,146c-5.5,2.2-15.1,10.3-14.7,17.1
		c0.3,6.8,8.4,10.1,8.4,10.1l0.4,13.3c4.2,23.7,21.8,18.5,21.8,18.5l-0.2,6l-12.3,4.4l-2.7,10.8l-32.6,26.4c0,0-17.3,4-24.3,5.8
		c-7,1.8-6.4,5.7-6.4,5.7c-12.1,1.3-15.1,5.8-15.1,5.8c-0.4,0.3-8.5,1.1-24.9,0.8c-16.4-0.3-16.8,1.7-16.8,1.7L97.4,294l-4.3-17.5
		c0,0,27-18.2,31.9-21.5c4.9-3.3,3.1-8.9,3.1-8.9s-13.9-72.1-16.1-81.5c-2.2-9.4-9.2-7.1-9.2-7.1s-81.4,38.1-87.6,42.2
		c-6.2,4.1-1.9,16.3-1.9,16.3l20.8,77.5c7.3,14,16,9.8,16,9.8L82.1,283l5.7,16.8l-46.7,29.9c0,0-22.3,14.7-24.7,18.8
		s4.3,4.5,4.3,4.5s119.4,1.3,124.8,1.7c5.4,0.3,8.9-4.1,8.9-4.1l48.3-47.6l3.5,0.7l-50.4,51.4l7.5,71.6l1.6,1l-17.6,12.7l3.5,19.2
		l26.7-8.9l0.4,1.1l3.1,2.3c-0.2,2.2-15.7,14-19.5,18s1.2,10.8,1.2,10.8c25.9,4.9,51-7.9,51-7.9l-0.8-21.4l3.3-4.7l-5.7-67.6
		l-2.3-2.4l43.5-14.3c1.6,3.5,6.3,3.4,6.3,3.4l35.1-16.6l5.8-12.2l-2-54.2c0,0,8.3-22.1,9.5-28.9c1.2-6.9-13.1-38.6-13.1-38.6
		L292.5,213.8z"/>
</g>
<g>
	<defs>
		<rect id="SVGID_1_" y="135" width="334" height="361"/>
	</defs>
	<clipPath id="SVGID_00000023983624236926285040000010309096642369814961_">
		<use xlink:href="#SVGID_1_"  style="overflow:visible;"/>
	</clipPath>
	<g style="clip-path:url(#SVGID_00000023983624236926285040000010309096642369814961_);">
		<path class="st2" d="M286.7,197.1c0,0,1.5-1.3,2.7,1.2c1.3,2.5,6.1,6.8,8.5,7.2c-0.3-0.3-4.7-8.9-4.5-12.9c0.4,0,2.4-4,6.6-5.4
			c4.2-1.5,18.7-1.3,23.4,3.5c4.7,4.8,10.5,12.4,9.9,24.9c-0.7,12.4-13,99-28.4,136.6c0,0-4.1,14-15.2,23.9
			c-11.1,9.9-36.4,17.4-58.6,17.4s-19.5-1.8-19.5-1.8l-1.3-10.3l-2.9-2.4l44.3-14.2c0,0,2.1,6.3,9.1,2.4c7-4,32.7-15.5,32.7-15.5
			l5.7-12.8l-2-55.1c0,0,9-16.8,9.1-26.5c0.1-9.7-8.4-28.2-8.4-28.2l-6-14.7l0.1-1.1l-4.5-6.3l-0.8-0.7L286.7,197.1L286.7,197.1z"/>
		<path class="st2" d="M20.7,353.2l124.4,1.8c0,0,5.9,0.2,12-6.5c6.1-6.7,45.8-45.5,45.8-45.5l4.1,1.3l-6.2,5.1l-46.2,46.4
			c0,0-3.5,4.9-12,3.8l-9,9.7l22.5,122.5c0,0,0.4,3.8-2.4,3.8s-3.2,0.8-3.8-3.4c-0.6-4.2-30-121.5-30-121.5l-19.4-13l-13.5,0.1
			l-15.2,70.9c0,0,0,2-2.5,1.8c-2.5-0.1-1.4-3.8-1.3-4.4c0.1-0.6,10.3-68.6,10.3-68.6l-9.2-0.1l-23.8,8.5l-39,122.1
			c0,0-0.6,1.3-3.9,1.1c-3.4-0.1-1.1-5.2-1.1-5.2l33.5-119.3l-11.6-5.9L20.7,353.2L20.7,353.2z"/>
		<path class="st2" d="M298.1,367.5l-3.1,12.7l-6.2,5.5l12.1,92.3c0,0-1.1,3.6-3.8,2.6c-2.6-0.9-3.3-2.6-3.3-2.6L278,391.2
			c0,0-12.7,8.7-39.2,9.7c-26.5,0.9-26.7-1.3-26.7-1.3l-0.5-7.9c0,0,4.4,1,6.1,1c1.7,0,33.3,3.4,58.8-8.1
			C276.6,384.5,296.2,372.2,298.1,367.5L298.1,367.5z"/>
		<path class="st2" d="M29.2,208.9l90.9,32c0,0,0.1,2.3-0.6,3.5c-0.7,1.2-70.2,43.8-70.2,43.8s-1.7,1.4-3.4-3.5
			c-1.8-4.9-19.6-70.2-19.6-70.2S25.9,211,29.2,208.9z"/>
		<path class="st2" d="M160.9,332.9c0,0-3.7-1.7-5-1.6c-1.3,0.1-39.6-6.3-39.6-6.3s1.6,7.5,4.2,7.8c2.6,0.3,37.4,1,37.7,1
			C158.5,333.9,160.4,333.7,160.9,332.9z"/>
		<path class="st3" d="M256.2,180.3c1,0,1.8-1.4,1.8-3.2c0-1.8-0.8-3.2-1.8-3.2c-1,0-1.8,1.4-1.8,3.2
			C254.3,178.8,255.2,180.3,256.2,180.3z"/>
		<path class="st4" d="M252,168.8c0,0,4.5-4,9.4,0.4"/>
		<path class="st4" d="M255.5,193.8c0,0,3.8,1.1,6.9-1.4"/>
		<path class="st4" d="M244.5,168.9c0,0-7,38.1,21.3,36.3c0,0,7.6-0.8,10.1-5.1"/>
		<path class="st4" d="M265.9,218.8v-12.9"/>
		<path class="st5" d="M244.3,157.4c0,0,8.1,9.2,18.1,9.1l-4.3-9.5c0,0,7.5,1.4,14.4,15.1c0,0,3-5.8-1.2-13.9c0,0,11,12.6,10.5,30.7
			c0,0,6.4-9.8,5.6-23.1"/>
		<path class="st5" d="M287.8,170.4c0,0,1.4-2.3,4.8-1.6c4.2,0.8,7.8,12.5-5.9,21.1v16.7"/>
		<path class="st5" d="M246.2,147.6c-0.4,0.1-11,7.3-10.6,15.1c0.3,6,6.2,9.8,8.3,11.2"/>
		<path class="st5" d="M249.4,146.5c0,0,4.7-12.4,24.1-10.7c19.4,1.7,25.5,22.9,23.4,31.6"/>
		<path class="st5" d="M293.2,188.2c0,0,0.7,14,6.1,18.1c0,0-5.5-1.3-9.9-8.5"/>
		<path class="st5" d="M296.5,189.5c0,0,5.6-6.4,21.1-1.6c23,7.1,15.2,41.4,11.2,66.2c0,0-15.5,93.4-32.8,115.7
			c-17.9,23.1-63.1,25.1-80.3,22.6"/>
		<path class="st5" d="M227.7,377.7c0.4,0.1,48.1,7.2,71-28.4"/>
		<path class="st5" d="M298.3,367.3l-3.4,12.8c0,0-2.8,3.1-5.9,5.2l11.7,91.9c0,0,0.4,2.7-2.4,3.4c-2.8,0.7-4.3-2.4-4.3-2.4
			l-15.8-87.4c0,0-15,12.8-63.1,9.2"/>
		<path class="st5" d="M287.4,206.4l-21.4,13l3.7-0.2l1.5,16.1l21.5-22.2L287.4,206.4z"/>
		<path class="st5" d="M265.8,210.7c-0.3,0.3-12.6,4.9-12.6,4.9s-3.7,15.6-2.6,15c1-0.7,13.2-12.1,13.2-12.1l1.5,1.1"/>
		<path class="st5" d="M293.3,217.6c0,0,13.5,29.2,13,40.7c-0.6,11.5-17.8,42.7-17.8,42.7s0.8,3.8-17.5,5.6
			c-18.2,1.9-56.4,4.3-56.4,4.3s-2.1-11.6-0.6-19.8c1.2-6.4,9-7.2,9-7.2l41.8-7.1l12.5,3.3"/>
		<path class="st5" d="M264.9,276.8l7.7-24.6"/>
		<path class="st5" d="M297.5,286.3l1.7,53.1l-5.6,12.1l-34.9,16.9c0,0-5.6,1.4-8.7-7.9c-3.1-9.3-11.3-31.3-11.3-31.3l-8.2-1.1
			l3.4-6.2l-14.4,2c0,0-6.5-7.3-20-2.8l16.3-6.3"/>
		<path class="st5" d="M243.1,247.7l0.8,29.1"/>
		<path class="st5" d="M251.2,225.8l-33.4,26.8l-26,6.3c0,0,15.9-2.2,20.4,8.3c4.5,10.4-5.1,15.1-5.1,15.1s4.4,1.7,10-2.7
			c5.6-4.4,11.6-8,11.6-8l13.2-5.2"/>
		<path class="st5" d="M217.8,252.9c0,0,7-1.3,9.9,4.5"/>
		<path class="st5" d="M208.7,287.5c0,0-20-4.5-25.9,16.9"/>
		<path class="st5" d="M189.8,302.5c-0.4,0.1-7.7,1.4-6.5,6.9c0,0,0.1,1.1,4.7-1c4.5-2.1,10.1-5.8,13-5.8c2.8,0,3.4,2.5,12.8,1.3"/>
		<path class="st5" d="M186.1,273.6c0,0.3-5.3,6.4-3.4,8.3c1.9,1.9,8.5-2.7,9.2-2.7s0.8,1.6,3.1,0.7"/>
		<path class="st5" d="M193.8,282.7c0.3,0,8.2-2.2,7.9-9.4c-0.3-7.2-12.1-13.4-24.1-7c-12,6.4-11.6,9.5-11.6,9.5"/>
		<path class="st5" d="M183.7,273.9c0,0-13.2-5.2-22.5,6.4c0,0-4.6,6.5,7.9,6.3c12.5-0.2,20.9-2.3,20.9-2.3"/>
		<path class="st5" d="M188.3,263.1c0.1-0.1,1-4.2,4.7-4.4"/>
		<path class="st5" d="M201.3,276l11.9-1.9"/>
		<path class="st5" d="M198.3,280.4c0,0,3.1,2,8.9,1.9"/>
		<path class="st5" d="M191,263.7l11.6-3.7"/>
		<path class="st5" d="M223.1,333.7c-2,0.6-47.6,17.2-47.6,17.2s-4.2,2-3.9,12.3c0.2,10.2,7,89.2,7,89.2s7.4,5,14.8,5.9
			c9.7,1.1,22.4-3.1,23.2-9.8c0-0.6-5.4-67-5.4-67l-14.1-10.3"/>
		<path class="st5" d="M208,379.3c1.7-0.8,39.7-13.6,39.7-13.6"/>
		<path class="st5" d="M261.6,232.9c0.7,0,1.3-1,1.3-2.1c0-1.2-0.6-2.1-1.3-2.1s-1.3,1-1.3,2.1C260.2,231.9,260.8,232.9,261.6,232.9
			z"/>
		<path class="st5" d="M97.9,293.4l31-20.5c0,0,3.2-2.1,8.6-2.3c5.4-0.2,29.5,0,29.5,0"/>
		<path class="st5" d="M198.4,307.5l-43.4,43.1c0,0-3.9,4.3-8.8,4.3c-4.9,0-124.9-1.7-124.9-1.7s-7.7-0.3-4.4-5.4
			c0,0,1.9-2.7,5.7-5.6L87,300.3"/>
		<path class="st5" d="M20.9,354.3l2.7,3.8l11.6,6.6L0.7,485.8c0,0-0.7,3.1,2.3,3.3c2.9,0.2,3.8-2.1,3.8-2.1l39-121.4l23.9-8.3
			l31,0.2l20.2,13.4l29.6,121.6c0,0,0.7,3.5,4.2,2.7c2.8-0.7,1.7-4.1,1.7-4.1L134,369.2l8.6-9.6c0,0,4.7,0.8,10.6-3
			c5.8-3.8,51.5-50.8,51.5-50.8"/>
		<path class="st5" d="M183.5,295.9l-19.8-5.3c-3.4-0.7-5.7,1.2-5.7,1.2l-40.9,32.1c0,0-1.2,0.7-0.2,4.1l1.9,4.4l38.1,1.6
			c0,0,2.2,0.2,3.9-1c1.8-1.2,21.1-21.7,21.1-21.7"/>
		<path class="st5" d="M118.9,325.9l38.5,5.8"/>
		<path class="st5" d="M77.9,360.4l-10.2,67.4c0,0-0.5,2,1.5,2.7c2,0.7,2.7-2.2,2.7-2.2l15.4-68.1"/>
		<path class="st5" d="M180,457.1l-19,15.2c0,0-2.6,3.4-0.4,7.1l2.3,3.8c0,0,33.8,2.6,50.7-8.3l-0.8-20.4"/>
		<path class="st5" d="M210.1,457.2l-23.2,9.6l-3.8-9.9"/>
		<path class="st5" d="M155.7,355.1l8.2,72.1c0,0,4.9,3,12.3,1.1"/>
		<path class="st5" d="M199.4,321l-14.7,5.4"/>
		<path class="st5" d="M165.3,428L148,440.4"/>
		<path class="st5" d="M150.9,459.9l27.5-9.8"/>
		<path class="st5" d="M166.6,429.9l2.1,6.6l8.1-3"/>
		<path class="st5" d="M82.3,283.1l6.3,20c0.3,0.2,4.3,1.1,7-1c2.7-2.1,2.1-4.8,2.1-4.8l-4.9-20.8"/>
		<path class="st5" d="M87.5,299.9l-9.9,16.5c0,0-2.3,5.4,3.2,7.3s18.5-1.3,29.6-10.2c10.8-8.7,9.1-18.2,9.1-18.2s0.2-2.8-6.3-2.7
			c-3.3,0.1-16,1.6-16,1.6"/>
		<path class="st5" d="M11.7,210.8l22.5,82.8c0,0,6.6,14.5,17.1,9c10.5-5.5,73.3-47.8,73.3-47.8s4.6-2.4,3.6-9.8L112,163.2
			c0,0-2.4-8.4-9.8-5.1l-85.5,40.8C16.8,198.9,9.4,202.7,11.7,210.8L11.7,210.8z"/>
		<path class="st5" d="M27,216.8l19.4,69.1c0,0,1.4,3.8,3.4,2.1l68.3-42.1c0,0,2.3-1.6,1.8-3.8l-13.4-66.8c0,0-1.1-5.3-5.8-3
			l-70.5,35.7C30.3,208.1,24.6,210.2,27,216.8L27,216.8z"/>
	</g>
</g>
<g>
	<defs>
		<rect id="SVGID_00000046339099744698849830000018006858600035990703_" x="370" y="0" width="128" height="489"/>
	</defs>
	<clipPath id="SVGID_00000097464420353901877800000006313956889475139743_">
		<use xlink:href="#SVGID_00000046339099744698849830000018006858600035990703_"  style="overflow:visible;"/>
	</clipPath>
	<g style="clip-path:url(#SVGID_00000097464420353901877800000006313956889475139743_);">
		<path class="st2" d="M378.5,218.6c0,0,9.4,4.1,10.1,4.3c0.7,0.2,29,10.5,34.9,10.1c5.9-0.4,9.1-4.2,11.1-12
			c2.1-7.8,3.2-12.1,3.2-12.1s6.1-0.4,7.9-2.2c1.8-1.8,3.3,12.3,8,13c4.7,0.7,5-1.5,5-1.5s-3.2,2.9-0.9,4.7c2.2,1.8,2,5.8,2,5.8
			s0.8,45.4-0.5,71.1c0,0-0.5,7.8,0.2,9.6c0.7,1.8,0.6,6.5-0.1,9.4c-0.7,2.9-3.5,82.1-3.5,82.1s0.8,9.6,0.8,10.7
			c0,1.1,1.1,9.2-18.6,8.4c0,0-14.9-1.2-15.5-5.3c-0.7-4,1.2-8.9,1.2-8.9l-0.8-52.8l-5.2,69.8l-1,8.5c0,0-8.4,11.6-24.2,10.1
			s-14.6-9.7-14.6-9.7l1.9-7.1l2-85.9c0,0-3.6-4.3-2.7-7.2c0.9-2.9,4.6-13.2,4.6-13.2s-5.7-56.2-4.8-90.2L378.5,218.6L378.5,218.6z"
			/>
		<path class="st2" d="M461.7,80.2l15-32.1c0,0,2.2-1.4,6-0.2c3.8,1.3,13,5.5,13,5.5s2.6-0.2,0.9,4.9l-18.2,15.9
			C478.4,74.2,464.2,77.9,461.7,80.2z"/>
		<path class="st2" d="M420.2,111.1l14-8c0,0,0.3,10.3-1.1,12c-1.4,1.7-3.7,1.2-4,1.2C428.9,116.4,420.2,111.1,420.2,111.1
			L420.2,111.1z"/>
		<path class="st3" d="M423.9,47.9c0-1.9-1-3.5-2.3-3.5c-1.3,0-2.3,1.6-2.3,3.5c0,1.9,1,3.5,2.3,3.5
			C422.9,51.4,423.9,49.8,423.9,47.9z"/>
		<path class="st3" d="M437.5,43.4c0-1.6-0.8-2.9-1.9-2.9c-1,0-1.9,1.3-1.9,2.9c0,1.6,0.8,2.9,1.9,2.9
			C436.6,46.3,437.5,45,437.5,43.4z"/>
		<path class="st7" d="M419.6,38.6c0,0-5.5-1.7-6.5,4.7"/>
		<path class="st7" d="M431.6,33.5c0,0,1.8-2,4.4-0.2"/>
		<path class="st7" d="M439.9,30.8l0.1,4.5"/>
		<path class="st8" d="M438,78.4c18-12.9,4.1-35.2,4.1-35.2l-1.3-3.7"/>
		<path class="st7" d="M435.3,79.9c0,0-15.7,8-26-2c-8.9-8.6-9.4-17.3-9.4-17.3"/>
		<path class="st8" d="M435.8,69.5c0,0-1.3-3-2-2.9c-0.7,0.1-4.9,6.9-2.9,6.8c2-0.1,3.1-0.9,3.1-0.9"/>
		<path class="st7" d="M398.3,49.8c0,0-1.2-3.9-4.9-3.5c-3.7,0.3-5.8,9.2-1.7,13.4c4.1,4.2,5.3,4.6,8,3.1"/>
		<path class="st8" d="M405.8,27.4c0,0-9.2,9.3-9.3,9.3c-0.1,0.1,7.1-0.6,7.1-0.6l-6.1,6.9l3.9,0.3l-4,4.7"/>
		<path class="st8" d="M407.9,24c0.1-0.5,0.9-7.3,3.1-7.1c2.3,0.1,9.3,9.7,16.3,11c0,0-3.5-5.9-4.3-9"/>
		<path class="st8" d="M423.9,20.5c0,0,6.7,2.2,10.1,8.4c0,0,2.6-3.9-1.3-9.5"/>
		<path class="st8" d="M434.7,22.8c0,0,4.8,2.8,6.1,7.6c0,0,9.1-10.8,2.2-16c-6.9-5.2-10.2-1.8-18.3-8.4c-5.8-4.7-21-10.5-27.7,3.8"
			/>
		<path class="st8" d="M393.2,15.7c0,0-14.4,6-15.9,18.6c-1.4,12.5,10.5,27.9,10.5,27.9s-0.5,10.9-5.4,13.3c0,0,8.9-0.1,11.3-8.2
			c0.4,0.9,0.9,7.3,4.3,11.2c0,0,0.6-4.8,2.5-7.6"/>
		<path class="st8" d="M411.1,25.3c0,0-0.3-1.7,1.9-4"/>
		<path class="st8" d="M414,25.6c0,0,0.7-1.8,2.4-1.7"/>
		<path class="st7" d="M403.3,70.4l-2.5,17.5"/>
		<path class="st7" d="M424.9,82.8l-0.3,8.3"/>
		<path class="st8" d="M399,87c0,0-6.3,4.7-2,8.5c4.2,3.7,29.6,19.6,29.6,19.6s3.9,2.3,6,1.3c2.1-1,1.7-8.5,1.7-8.5l-1.1-22.1"/>
		<path class="st8" d="M420.6,110.9l9.3-5.8"/>
		<path class="st8" d="M398.5,81.7c-0.3,0.2-10.3,3.4-16.8,18.2"/>
		<path class="st8" d="M378.4,103c0,0-8.1,8.6-7.6,20.8c0.4,12.2,2.7,41.7,2.7,41.7"/>
		<path class="st8" d="M375.2,171.3c0,0,12.2,35.7,23,36.7c10.8,1,34.3-19.2,35.2-26.4c0.9-7.2,1.3-11.8,3.5-15.3
			c2.2-3.5-10.1-10.8-14.5-17.7c-4.4-6.9-8.6,2.6-8.6,2.6l-9.3,12.6"/>
		<path class="st8" d="M401.5,165c0,0-8.4-1.4-13.7,3.3"/>
		<path class="st8" d="M405.6,154.9L404,135"/>
		<path class="st8" d="M403.4,131.8c0,0-1.4-7-10.5-10.6"/>
		<path class="st8" d="M443.5,77.9c0,0,4.4,1.6,8,5.2"/>
		<path class="st8" d="M467.5,113.1l14.4,37.7c0,0,5.9,0.8,6.4,4c0.5,3.2-6.4,7.1-6.4,7.1s1.5,11.1-2,14c-3.5,2.9-4.2-6.6-12-8
			c-7.7-1.4-10.4-0.6-10.4-0.6"/>
		<path class="st8" d="M455.2,219.7c-0.9,0.9-1.7,0.5-2.5-0.6c-1.9-2.7-8.5-17.2-11.8-14.8c-3.2,2.4-5.8,24.3-13.3,28.2
			c-7.5,3.9-44.2-11.4-46.1-12.5"/>
		<path class="st8" d="M455.7,130.2l-0.6,44.7c0,0,3.9,6.5,5.9,15.9"/>
		<path class="st8" d="M381.1,186.1l-5,21.7"/>
		<path class="st8" d="M378.8,219.8c0,0-0.2,53.8,4.8,100.4c0,0-5.2,10.7-2.8,16.4c2.5,5.7-0.9,88-0.9,91c0,3-3.4,6.5,0.3,9.2
			c3.7,2.7,6.5,5.5,18.5,4.4c11.9-1.2,18.6-10.1,18.6-10.1l6.6-89.9c0,0,3.3-10.9,1.2-14.8c-2.1-3.9,10.9-77.5,10.9-77.5"/>
		<path class="st8" d="M441.1,155.5c0,0,2.5,10.3,1.1,18.3"/>
		<path class="st8" d="M459.6,154.7c0,0,10-3.1,8.7-1c-1.4,2.1-8.1,7.5-2.8,7"/>
		<path class="st8" d="M446.5,216.3c0,0,0.7,19.3-6.4,27.8l0-23.2"/>
		<path class="st8" d="M438.6,209.1c0,0,4,0,6.5-2.1"/>
		<path class="st8" d="M460.3,227.5c0,0,1.4,45.5-1.3,75.1c0,0,1.7,11.3,0.6,13.8c-1.1,2.5-2,29.3-2,29.3l-1.8,56.4
			c0,0,2.4,11.7-0.5,14.5c-2,1.9-19.3,6.8-31,1c0,0-3.6-0.8-0.4-8.7c1.6-3.8-0.4-58.4-0.4-58.4"/>
		<path class="st8" d="M415.6,440.9l11.3,30.2c0,0,4.5,6.6,0.7,14c0,0-5.1,6.1-16.8,1.2c-11.7-4.8-23-23.2-25.4-31.7l0.4-14"/>
		<path class="st8" d="M395.3,443.8c0,0,5.1,8.8,12.1,7c7-1.8,4.6-11,4.6-11"/>
		<path class="st8" d="M443.7,185.8c0-1.6-0.8-2.8-1.7-2.8c-1,0-1.8,1.3-1.8,2.8c0,1.6,0.8,2.8,1.7,2.8
			C442.9,188.7,443.7,187.4,443.7,185.8z"/>
		<path class="st8" d="M475.1,178.2c0,0-1.7,14.1-5.8,20.1"/>
		<path class="st8" d="M423.6,145.3l25.2-36.9"/>
		<path class="st8" d="M437.9,157.6l24.9-47.8"/>
		<path class="st8" d="M463.2,111.9c0,0,16.3-9,16.7-18.1c0.4-8.6-2.8-10.4-2.8-10.4s-4.1-2.7-10.3,0.6"/>
		<path class="st8" d="M476.7,79.7c0,0,5.4-2.5,5.5-4.7c0.1-1.4-9.8-0.8-16.9,2.9c-4.4,2.3-7.5,7.4-7.5,9.1"/>
		<path class="st8" d="M460.6,78.8c0,0,1-5.9-1.4-6c-2.4-0.1-2.9,6.2-4.5,9.8c-1.6,3.6-3.1,10.7-3,12.5"/>
		<path class="st8" d="M464.4,74.4l9.7-21.4"/>
		<path class="st8" d="M476,49c0,0,1.4-3.2,6.1-1.6c4.3,1.5,12.2,4.7,12.2,4.7s4.4,1.5,2.6,6.4c-2.9,7.7-14.6,32.4-14.6,32.4"/>
		<path class="st8" d="M453.9,420.1c0,0,27.8,16.6,31.5,21c2.5,3,0,6.9-2,9.2c-1.1,1.2-5.2,1.7-5.2,1.7l-48.2-5.6c0,0-4.6-0.2-4.6-8
			"/>
		<path class="st8" d="M426.2,430.8c0-0.5,1.1-11.3,1.1-11.3"/>
		<path class="st8" d="M443,422.4c0,0,5.1,7.3,14.1,3.4"/>
		<path class="st8" d="M466,193.3c0,0,2.7,0.8,0,7.1c-2.9,6.8-7.1,10.7-8.4,10.5c-1.4-0.2-2.9-0.5,0.9-10
			C462.4,191.4,466,193.3,466,193.3L466,193.3z"/>
		<path class="st8" d="M460.5,209.2c0,0,0.4,6.5-1.9,9.6c-2.8,3.8-0.5,4.8-0.5,4.8c12.1,6,14-14.2,14-14.2s0.4-6.7-3.8-10.6"/>
	</g>
</g>
</svg>
