<svg width="498" height="496" viewBox="0 0 498 496" fill="none" xmlns="http://www.w3.org/2000/svg">
<g clip-path="url(#clip0_1101_21)">
<path d="M286.747 197.053C286.747 197.053 288.23 195.779 289.493 198.25C290.756 200.72 295.62 205.024 297.95 205.448C297.671 205.168 293.23 196.552 293.442 192.537C293.798 192.537 295.84 188.581 300.061 187.104C304.281 185.627 318.73 185.831 323.451 190.635C328.171 195.431 333.993 203.08 333.341 215.499C332.688 227.918 320.374 314.486 304.968 352.125C304.968 352.125 300.832 366.148 289.747 376.029C278.662 385.91 253.298 393.439 231.128 393.439C208.958 393.439 211.678 391.648 211.678 391.648L210.365 381.3L207.45 378.856L251.789 364.646C251.789 364.646 253.857 370.953 260.899 366.997C267.942 363.041 293.586 351.471 293.586 351.471L299.315 338.67L297.34 283.527C297.34 283.527 306.357 266.686 306.451 256.992C306.544 247.297 298.086 228.767 298.086 228.767L292.078 214.089L292.171 212.96L287.662 206.653L286.815 205.991L286.722 197.053H286.747Z" fill="#20FFB3"/>
<path d="M20.7189 353.152L145.093 354.943C145.093 354.943 151.008 355.13 157.119 348.449C163.229 341.769 202.958 302.907 202.958 302.907L207.094 304.223L200.89 309.308L154.72 355.699C154.72 355.699 151.195 360.639 142.746 359.51L133.728 369.247L156.271 491.756C156.271 491.756 156.695 495.567 153.873 495.567C151.051 495.567 150.635 496.416 150.068 492.18C149.5 487.944 120.05 370.656 120.05 370.656L100.601 357.668L87.0755 357.812L71.855 428.668C71.855 428.668 71.855 430.646 69.3211 430.501C66.7871 430.357 67.9143 426.69 68.0499 426.13C68.1854 425.569 78.3381 357.532 78.3381 357.532L69.177 357.388L45.3632 365.86L6.34584 487.944C6.34584 487.944 5.77804 489.218 2.39665 489.073C-0.984743 488.929 1.26952 483.853 1.26952 483.853L34.8038 364.586L23.2528 358.661L20.7189 353.16V353.152Z" fill="#20FFB3"/>
<path d="M298.12 367.455L295.018 380.154L288.815 385.612L300.934 477.919C300.934 477.919 299.806 481.493 297.179 480.55C294.552 479.608 293.891 477.919 293.891 477.919L278.018 391.19C278.018 391.19 265.34 399.916 238.848 400.858C212.356 401.8 212.17 399.542 212.17 399.542L211.704 391.639C211.704 391.639 216.119 392.624 217.814 392.624C219.509 392.624 251.119 396.062 276.62 384.483C276.62 384.483 296.179 372.158 298.128 367.455H298.12Z" fill="#20FFB3"/>
<path d="M29.1681 208.911L120.101 240.905C120.101 240.905 120.194 243.163 119.533 244.386C118.872 245.608 49.3802 288.23 49.3802 288.23C49.3802 288.23 47.6852 289.639 45.931 284.775C44.1767 279.911 26.346 214.556 26.346 214.556C26.346 214.556 25.8545 211.025 29.1681 208.911Z" fill="#20FFB3"/>
<path d="M160.873 332.923C160.873 332.923 157.212 331.225 155.898 331.327C154.585 331.429 116.347 325.02 116.347 325.02C116.347 325.02 117.94 332.55 120.576 332.83C123.211 333.11 157.966 333.865 158.246 333.865C158.525 333.865 160.407 333.679 160.873 332.923Z" fill="#20FFB3"/>
<path d="M256.17 180.253C257.181 180.253 258.001 178.832 258.001 177.079C258.001 175.325 257.181 173.904 256.17 173.904C255.159 173.904 254.34 175.325 254.34 177.079C254.34 178.832 255.159 180.253 256.17 180.253Z" fill="#20259D"/>
<path d="M252.018 168.751C252.018 168.751 256.526 164.795 261.459 169.176" stroke="#20259D" stroke-width="1.99992" stroke-miterlimit="10" stroke-linecap="round"/>
<path d="M255.518 193.801C255.518 193.801 259.365 194.93 262.425 192.392" stroke="#20259D" stroke-width="1.99992" stroke-miterlimit="10" stroke-linecap="round"/>
<path d="M244.475 168.921C244.475 168.921 237.433 207.027 265.798 205.244C265.798 205.244 273.408 204.446 275.942 200.159" stroke="#20259D" stroke-width="1.99992" stroke-miterlimit="10" stroke-linecap="round"/>
<path d="M265.942 218.783V205.847" stroke="#20259D" stroke-width="1.99992" stroke-miterlimit="10" stroke-linecap="round"/>
<path d="M244.289 157.436C244.289 157.436 252.365 166.654 262.416 166.561L258.094 157.054C258.094 157.054 265.611 158.463 272.467 172.113C272.467 172.113 275.476 166.281 271.247 158.183C271.247 158.183 282.238 170.788 281.764 188.861C281.764 188.861 288.154 179.073 287.4 165.712" stroke="#20259D" stroke-width="1.99992" stroke-linecap="round" stroke-linejoin="round"/>
<path d="M287.781 170.424C287.781 170.424 289.154 168.14 292.569 168.828C296.798 169.677 300.366 181.34 286.654 189.905V206.654" stroke="#20259D" stroke-width="1.99992" stroke-linecap="round" stroke-linejoin="round"/>
<path d="M246.17 147.648C245.73 147.776 235.196 154.932 235.552 162.707C235.831 168.726 241.78 172.512 243.814 173.904" stroke="#20259D" stroke-width="1.99992" stroke-linecap="round" stroke-linejoin="round"/>
<path d="M249.408 146.519C249.408 146.519 254.06 134.1 273.501 135.789C292.942 137.479 299.001 158.658 296.891 167.401" stroke="#20259D" stroke-width="1.99992" stroke-linecap="round" stroke-linejoin="round"/>
<path d="M293.23 188.156C293.23 188.156 293.933 202.129 299.289 206.22C299.289 206.22 293.798 204.947 289.425 197.749" stroke="#20259D" stroke-width="1.99992" stroke-linecap="round" stroke-linejoin="round"/>
<path d="M296.518 189.523C296.518 189.523 302.137 183.123 317.612 187.876C340.578 194.93 332.781 229.233 328.841 254.071C328.841 254.071 313.349 347.439 296.052 369.807C278.154 392.955 232.924 394.933 215.738 392.387" stroke="#20259D" stroke-width="1.99992" stroke-linecap="round" stroke-linejoin="round"/>
<path d="M227.712 377.71C228.136 377.854 275.764 384.908 298.73 349.34" stroke="#20259D" stroke-width="1.99992" stroke-linecap="round" stroke-linejoin="round"/>
<path d="M298.306 367.269L294.925 380.112C294.925 380.112 292.103 383.219 289.01 385.333L300.662 477.265C300.662 477.265 301.035 479.99 298.222 480.652C295.408 481.315 293.9 478.301 293.9 478.301L278.12 390.884C278.12 390.884 263.086 403.685 214.992 400.103" stroke="#20259D" stroke-width="1.99992" stroke-linecap="round" stroke-linejoin="round"/>
<path d="M287.408 206.365L265.993 219.352L269.654 219.166L271.154 235.252L292.671 213.045L287.408 206.365Z" stroke="#20259D" stroke-width="1.99992" stroke-linecap="round" stroke-linejoin="round"/>
<path d="M265.806 210.694C265.526 210.974 253.221 215.583 253.221 215.583C253.221 215.583 249.56 231.203 250.594 230.54C251.628 229.878 263.84 218.402 263.84 218.402L265.34 219.531" stroke="#20259D" stroke-width="1.99992" stroke-linecap="round" stroke-linejoin="round"/>
<path d="M293.323 217.562C293.323 217.562 306.849 246.729 306.29 258.214C305.73 269.699 288.442 300.929 288.442 300.929C288.442 300.929 289.196 304.69 270.967 306.574C252.738 308.459 214.602 310.904 214.602 310.904C214.602 310.904 212.492 299.266 214.034 291.142C215.255 284.741 223.051 283.892 223.051 283.892L264.857 276.745L277.349 280.039" stroke="#20259D" stroke-width="1.99992" stroke-linecap="round" stroke-linejoin="round"/>
<path d="M264.865 276.753L272.569 252.187" stroke="#20259D" stroke-width="1.99992" stroke-linecap="round" stroke-linejoin="round"/>
<path d="M297.459 286.252L299.154 339.323L293.518 351.462L258.569 368.397C258.569 368.397 252.933 369.806 249.831 360.494C246.73 351.182 238.56 329.162 238.56 329.162L230.39 328.033L233.772 321.82L219.399 323.798C219.399 323.798 212.916 316.455 199.39 320.971L215.662 314.689" stroke="#20259D" stroke-width="1.99992" stroke-linecap="round" stroke-linejoin="round"/>
<path d="M243.069 247.722L243.916 276.796" stroke="#20259D" stroke-width="1.99992" stroke-linecap="round" stroke-linejoin="round"/>
<path d="M251.238 225.846L217.839 252.662L191.822 258.918C191.822 258.918 207.695 256.754 212.204 267.195C216.712 277.636 207.128 282.296 207.128 282.296C207.128 282.296 211.492 283.994 217.136 279.614C222.78 275.234 228.687 271.566 228.687 271.566L241.933 266.346" stroke="#20259D" stroke-width="1.99992" stroke-linecap="round" stroke-linejoin="round"/>
<path d="M217.848 252.943C217.848 252.943 224.89 251.669 227.712 257.459" stroke="#20259D" stroke-width="1.99992" stroke-linecap="round" stroke-linejoin="round"/>
<path d="M208.687 287.525C208.687 287.525 188.678 283.009 182.763 304.46" stroke="#20259D" stroke-width="1.99992" stroke-linecap="round" stroke-linejoin="round"/>
<path d="M189.805 302.482C189.382 302.627 182.059 303.892 183.322 309.401C183.322 309.401 183.466 310.53 187.975 308.416C192.483 306.302 198.119 302.627 200.941 302.627C203.763 302.627 204.322 305.165 213.763 303.9" stroke="#20259D" stroke-width="1.99992" stroke-linecap="round" stroke-linejoin="round"/>
<path d="M186.051 273.646C186.051 273.927 180.788 280.047 182.67 281.923C184.551 283.799 191.127 279.198 191.873 279.198C192.619 279.198 192.627 280.794 194.975 279.86" stroke="#20259D" stroke-width="1.99992" stroke-linecap="round" stroke-linejoin="round"/>
<path d="M193.848 282.679C194.127 282.679 202.017 280.514 201.738 273.273C201.458 266.032 189.619 259.912 177.593 266.312C165.568 272.713 166.042 275.82 166.042 275.82" stroke="#20259D" stroke-width="1.99992" stroke-linecap="round" stroke-linejoin="round"/>
<path d="M183.704 273.926C183.704 273.926 170.458 268.748 161.161 280.327C161.161 280.327 156.559 286.821 169.051 286.634C181.543 286.447 189.907 284.376 189.907 284.376" stroke="#20259D" stroke-width="1.99992" stroke-linecap="round" stroke-linejoin="round"/>
<path d="M188.254 263.103C188.305 262.959 189.288 258.918 193 258.731" stroke="#20259D" stroke-width="1.99992" stroke-linecap="round" stroke-linejoin="round"/>
<path d="M201.263 275.998L213.195 274.113" stroke="#20259D" stroke-width="1.99992" stroke-linecap="round" stroke-linejoin="round"/>
<path d="M198.263 280.42C198.263 280.42 201.365 282.398 207.145 282.305" stroke="#20259D" stroke-width="1.99992" stroke-linecap="round" stroke-linejoin="round"/>
<path d="M190.983 263.672L202.534 259.954" stroke="#20259D" stroke-width="1.99992" stroke-linecap="round" stroke-linejoin="round"/>
<path d="M223.06 333.679C221.085 334.247 175.432 350.902 175.432 350.902C175.432 350.902 171.28 352.948 171.483 363.186C171.686 373.423 178.526 452.436 178.526 452.436C178.526 452.436 185.949 457.461 193.322 458.319C203.043 459.448 215.729 455.263 216.475 448.489C216.475 447.92 211.026 381.496 211.026 381.496L196.933 371.148" stroke="#20259D" stroke-width="1.99992" stroke-linecap="round" stroke-linejoin="round"/>
<path d="M207.983 379.263C209.678 378.414 247.67 365.664 247.67 365.664" stroke="#20259D" stroke-width="1.99992" stroke-linecap="round" stroke-linejoin="round"/>
<path d="M261.552 232.858C262.282 232.858 262.874 231.896 262.874 230.71C262.874 229.524 262.282 228.562 261.552 228.562C260.822 228.562 260.23 229.524 260.23 230.71C260.23 231.896 260.822 232.858 261.552 232.858Z" stroke="#20259D" stroke-width="1.99992" stroke-linecap="round" stroke-linejoin="round"/>
<path d="M97.9315 293.357L128.932 272.891C128.932 272.891 132.127 270.82 137.576 270.633C143.025 270.446 167.076 270.633 167.076 270.633" stroke="#20259D" stroke-width="1.99992" stroke-linecap="round" stroke-linejoin="round"/>
<path d="M198.449 307.516L155.051 350.613C155.051 350.613 151.102 354.943 146.22 354.943C141.339 354.943 21.2782 353.245 21.2782 353.245C21.2782 353.245 13.5747 352.965 16.9137 347.88C16.9137 347.88 18.7951 345.155 22.6002 342.328L87.0162 300.258" stroke="#20259D" stroke-width="1.99992" stroke-linecap="round" stroke-linejoin="round"/>
<path d="M20.8545 354.281L23.5325 358.092L35.0834 364.722L0.71019 485.83C0.71019 485.83 0.0491665 488.937 2.96445 489.124C5.87973 489.311 6.71872 487.053 6.71872 487.053L45.7022 365.673L69.5668 357.396L100.567 357.583L120.762 370.944L150.356 492.511C150.356 492.511 151.076 496.059 154.585 495.236C157.407 494.574 156.28 491.093 156.28 491.093L134.017 369.238L142.61 359.637C142.61 359.637 147.356 360.393 153.178 356.624C159 352.863 204.653 305.81 204.653 305.81" stroke="#20259D" stroke-width="1.99992" stroke-linecap="round" stroke-linejoin="round"/>
<path d="M183.466 295.853L163.703 290.522C160.322 289.817 157.958 291.719 157.958 291.719L117.093 323.789C117.093 323.789 115.872 324.451 116.906 327.932L118.788 332.354L156.924 333.95C156.924 333.95 159.085 334.137 160.873 332.915C162.661 331.692 182.009 311.175 182.009 311.175" stroke="#20259D" stroke-width="1.99992" stroke-linecap="round" stroke-linejoin="round"/>
<path d="M118.932 325.912L157.398 331.701" stroke="#20259D" stroke-width="1.99992" stroke-linecap="round" stroke-linejoin="round"/>
<path d="M77.9059 360.401L67.677 427.776C67.677 427.776 67.1685 429.754 69.2109 430.501C71.2533 431.248 71.9397 428.336 71.9397 428.336L87.3636 360.214" stroke="#20259D" stroke-width="1.99992" stroke-linecap="round" stroke-linejoin="round"/>
<path d="M180.034 457.13L161.059 472.376C161.059 472.376 158.432 475.763 160.686 479.523L162.941 483.284C162.941 483.284 196.755 485.915 213.67 475.007L212.916 454.634" stroke="#20259D" stroke-width="1.99992" stroke-linecap="round" stroke-linejoin="round"/>
<path d="M210.094 457.173L186.848 466.773L183.043 456.893" stroke="#20259D" stroke-width="1.99992" stroke-linecap="round" stroke-linejoin="round"/>
<path d="M155.703 355.13L163.924 427.276C163.924 427.276 168.856 430.306 176.187 428.337" stroke="#20259D" stroke-width="1.99992" stroke-linecap="round" stroke-linejoin="round"/>
<path d="M199.39 320.971L184.687 326.336" stroke="#20259D" stroke-width="1.99992" stroke-linecap="round" stroke-linejoin="round"/>
<path d="M165.288 427.963L148 440.382" stroke="#20259D" stroke-width="1.99992" stroke-linecap="round" stroke-linejoin="round"/>
<path d="M150.915 459.949L178.39 450.119" stroke="#20259D" stroke-width="1.99992" stroke-linecap="round" stroke-linejoin="round"/>
<path d="M166.602 429.932L168.67 436.502L176.746 433.514" stroke="#20259D" stroke-width="1.99992" stroke-linecap="round" stroke-linejoin="round"/>
<path d="M82.3382 283.145L88.6348 303.187C88.9653 303.425 92.9569 304.265 95.6773 302.152C98.3976 300.038 97.7875 297.398 97.7875 297.398L92.8552 276.558" stroke="#20259D" stroke-width="1.99992" stroke-linecap="round" stroke-linejoin="round"/>
<path d="M87.5077 299.945L77.6432 316.455C77.6432 316.455 75.3889 321.82 80.8805 323.798C86.3721 325.776 99.3468 322.533 110.474 313.637C121.322 304.953 119.559 295.429 119.559 295.429C119.559 295.429 119.771 292.602 113.245 292.746C109.991 292.814 97.279 294.3 97.279 294.3" stroke="#20259D" stroke-width="1.99992" stroke-linecap="round" stroke-linejoin="round"/>
<path d="M11.6933 210.787L34.236 293.595C34.236 293.595 40.8123 308.085 51.3293 302.627C61.8464 297.169 124.601 254.827 124.601 254.827C124.601 254.827 129.203 252.382 128.169 245.039L112.008 163.174C112.008 163.174 109.61 154.779 102.237 158.089L16.7697 198.937C16.7697 198.937 9.43909 202.698 11.6933 210.796V210.787Z" stroke="#20259D" stroke-width="1.99992" stroke-linecap="round" stroke-linejoin="round"/>
<path d="M27.0071 216.814L46.4564 285.879C46.4564 285.879 47.8632 289.639 49.8378 287.95L118.135 245.888C118.135 245.888 120.389 244.241 119.923 242.128L106.533 175.321C106.533 175.321 105.474 170.024 100.754 172.359L30.2952 208.071C30.2952 208.071 24.5664 210.236 27.0071 216.823V216.814Z" stroke="#20259D" stroke-width="1.99992" stroke-linecap="round" stroke-linejoin="round"/>
</g>
<g clip-path="url(#clip1_1101_21)">
<path d="M378.524 218.65C378.524 218.65 387.963 222.747 388.645 222.969C389.326 223.19 417.664 233.462 423.523 233.058C429.382 232.655 432.576 228.871 434.661 221.062C436.746 213.252 437.906 209.004 437.906 209.004C437.906 209.004 443.999 208.601 445.809 206.825C447.62 205.049 449.105 219.155 453.835 219.851C458.565 220.547 458.809 218.317 458.809 218.317C458.809 218.317 455.635 221.203 457.873 223.009C460.111 224.815 459.856 228.841 459.856 228.841C459.856 228.841 460.66 274.255 459.348 299.974C459.348 299.974 458.839 307.803 459.5 309.589C460.161 311.375 460.131 316.077 459.429 318.983C458.727 321.889 455.91 401.053 455.91 401.053C455.91 401.053 456.744 410.678 456.734 411.798C456.723 412.918 457.792 420.98 438.181 420.173C438.181 420.173 423.31 418.952 422.659 414.916C422.008 410.88 423.849 405.977 423.849 405.977L423.096 353.177L417.868 422.927L416.901 431.423C416.901 431.423 408.479 442.996 392.703 441.543C376.927 440.09 378.117 431.827 378.117 431.827L379.968 424.683L381.931 338.799C381.931 338.799 378.351 334.521 379.277 331.625C380.202 328.729 383.884 318.458 383.884 318.458C383.884 318.458 378.198 262.268 379.114 228.276L378.504 218.65H378.524Z" fill="#20FFB3"/>
<path d="M461.708 80.2086L476.711 48.103C476.711 48.103 478.867 46.6601 482.692 47.9213C486.516 49.1826 495.732 53.3799 495.732 53.3799C495.732 53.3799 498.326 53.1781 496.596 58.3037L478.44 74.2253C478.44 74.2253 464.21 77.8677 461.708 80.2086Z" fill="#20FFB3"/>
<path d="M420.248 111.144L434.254 103.193C434.254 103.193 434.6 113.515 433.156 115.18C431.711 116.844 429.423 116.41 429.168 116.41C428.914 116.41 420.238 111.144 420.238 111.144H420.248Z" fill="#20FFB3"/>
<path d="M423.923 47.8788C423.937 45.934 422.919 44.3504 421.649 44.3416C420.38 44.3328 419.339 45.9022 419.326 47.8469C419.312 49.7917 420.33 51.3753 421.6 51.3841C422.869 51.3929 423.909 49.8235 423.923 47.8788Z" fill="#20259D"/>
<path d="M437.478 43.4461C437.489 41.8636 436.66 40.5749 435.627 40.5678C434.593 40.5606 433.746 41.8377 433.735 43.4202C433.724 45.0028 434.553 46.2914 435.586 46.2986C436.62 46.3058 437.467 45.0287 437.478 43.4461Z" fill="#20259D"/>
<path d="M419.577 38.6184C419.577 38.6184 414.074 36.9032 413.057 43.3404" stroke="#20259D" stroke-width="1.99984" stroke-miterlimit="10" stroke-linecap="round"/>
<path d="M431.62 33.5131C431.62 33.5131 433.41 31.5153 436.004 33.3315" stroke="#20259D" stroke-width="1.99984" stroke-miterlimit="10" stroke-linecap="round"/>
<path d="M439.91 30.8188L439.971 35.329" stroke="#20259D" stroke-width="1.99984" stroke-miterlimit="10" stroke-linecap="round"/>
<path d="M438.018 78.4022C455.981 65.4772 442.137 43.2495 442.137 43.2495L440.825 39.5566" stroke="#20259D" stroke-width="1.99984" stroke-linecap="round" stroke-linejoin="round"/>
<path d="M435.343 79.9259C435.343 79.9259 419.607 87.8766 409.313 77.8878C400.444 69.261 399.864 60.5737 399.864 60.5737" stroke="#20259D" stroke-width="1.99984" stroke-miterlimit="10" stroke-linecap="round"/>
<path d="M435.75 69.5334C435.75 69.5334 434.498 66.5771 433.766 66.6376C433.034 66.6982 428.853 73.5693 430.847 73.4583C432.84 73.3473 433.99 72.6007 433.99 72.6007" stroke="#20259D" stroke-width="1.99984" stroke-linecap="round" stroke-linejoin="round"/>
<path d="M398.287 49.788C398.287 49.788 397.067 45.9236 393.364 46.2667C389.662 46.6097 387.577 55.4887 391.676 59.676C395.775 63.8632 396.945 64.2769 399.722 62.7332" stroke="#20259D" stroke-width="1.99984" stroke-miterlimit="10" stroke-linecap="round"/>
<path d="M405.835 27.3584C405.835 27.3584 396.629 36.641 396.497 36.7015C396.365 36.7621 403.638 36.0659 403.638 36.0659L397.586 42.9269L401.451 43.2699L397.484 48.0121" stroke="#20259D" stroke-width="1.99984" stroke-linecap="round" stroke-linejoin="round"/>
<path d="M407.859 23.9784C407.991 23.4739 408.713 16.7037 410.982 16.845C413.25 16.9862 420.248 26.5715 427.246 27.8731C427.246 27.8731 423.757 22.0109 422.974 18.873" stroke="#20259D" stroke-width="1.99984" stroke-linecap="round" stroke-linejoin="round"/>
<path d="M423.889 20.4567C423.889 20.4567 430.542 22.6361 433.969 28.811C433.969 28.811 436.533 24.9366 432.708 19.2661" stroke="#20259D" stroke-width="1.99984" stroke-linecap="round" stroke-linejoin="round"/>
<path d="M434.722 22.8278C434.722 22.8278 439.503 25.6226 440.805 30.3951C440.805 30.3951 449.868 19.5789 442.961 14.4331C436.065 9.27723 432.759 12.627 424.612 6.01823C418.773 1.29623 403.607 -4.50539 396.935 9.84225" stroke="#20259D" stroke-width="1.99984" stroke-linecap="round" stroke-linejoin="round"/>
<path d="M393.242 15.7246C393.242 15.7246 378.798 21.7684 377.374 34.3099C375.95 46.8515 387.851 62.2384 387.851 62.2384C387.851 62.2384 387.373 73.1051 382.42 75.5871C382.42 75.5871 391.31 75.4862 393.68 67.4245C394.076 68.3023 394.565 74.7093 398.003 78.6242C398.003 78.6242 398.572 73.8618 400.454 70.9862" stroke="#20259D" stroke-width="1.99984" stroke-linecap="round" stroke-linejoin="round"/>
<path d="M411.093 25.2595C411.093 25.2595 410.748 23.5846 412.985 21.2539" stroke="#20259D" stroke-width="1.99984" stroke-linecap="round" stroke-linejoin="round"/>
<path d="M413.982 25.6127C413.982 25.6127 414.704 23.7763 416.393 23.9579" stroke="#20259D" stroke-width="1.99984" stroke-linecap="round" stroke-linejoin="round"/>
<path d="M403.261 70.3809L400.739 87.9269" stroke="#20259D" stroke-width="1.99984" stroke-miterlimit="10" stroke-linecap="round"/>
<path d="M424.917 82.8218L424.591 91.1055" stroke="#20259D" stroke-width="1.99984" stroke-miterlimit="10" stroke-linecap="round"/>
<path d="M398.969 86.9587C398.969 86.9587 392.713 91.6807 396.955 95.4139C401.196 99.1471 426.514 115.028 426.514 115.028C426.514 115.028 430.409 117.349 432.556 116.31C434.702 115.271 434.214 107.855 434.214 107.855L433.125 85.7983" stroke="#20259D" stroke-width="1.99984" stroke-linecap="round" stroke-linejoin="round"/>
<path d="M420.645 110.922L429.962 105.17" stroke="#20259D" stroke-width="1.99984" stroke-linecap="round" stroke-linejoin="round"/>
<path d="M398.47 81.6616C398.206 81.8331 388.136 85.0316 381.708 99.8938" stroke="#20259D" stroke-width="1.99984" stroke-linecap="round" stroke-linejoin="round"/>
<path d="M378.402 103.042C378.402 103.042 370.336 111.628 370.783 123.806C371.231 135.985 373.509 165.457 373.509 165.457" stroke="#20259D" stroke-width="1.99984" stroke-linecap="round" stroke-linejoin="round"/>
<path d="M375.249 171.288C375.249 171.288 387.444 207.006 398.287 207.965C409.13 208.923 432.566 188.794 433.512 181.57C434.448 174.346 434.844 169.755 437.001 166.244C439.157 162.732 426.941 155.407 422.547 148.506C418.153 141.604 413.992 151.089 413.992 151.089L404.655 163.721" stroke="#20259D" stroke-width="1.99984" stroke-linecap="round" stroke-linejoin="round"/>
<path d="M401.522 164.952C401.522 164.952 393.171 163.57 387.8 168.211" stroke="#20259D" stroke-width="1.99984" stroke-linecap="round" stroke-linejoin="round"/>
<path d="M405.591 154.883L404.004 135.016" stroke="#20259D" stroke-width="1.99984" stroke-linecap="round" stroke-linejoin="round"/>
<path d="M403.444 131.798C403.444 131.798 402.071 124.815 392.896 121.183" stroke="#20259D" stroke-width="1.99984" stroke-linecap="round" stroke-linejoin="round"/>
<path d="M443.49 77.8779C443.49 77.8779 447.874 79.5024 451.444 83.1044" stroke="#20259D" stroke-width="1.99984" stroke-linecap="round" stroke-linejoin="round"/>
<path d="M467.516 113.101L481.919 150.776C481.919 150.776 487.777 151.614 488.296 154.792C488.815 157.97 481.847 161.895 481.847 161.895C481.847 161.895 483.373 173.024 479.884 175.91C476.395 178.796 475.663 169.261 467.933 167.888C460.202 166.516 457.537 167.283 457.537 167.283" stroke="#20259D" stroke-width="1.99984" stroke-linecap="round" stroke-linejoin="round"/>
<path d="M455.228 219.679C454.303 220.537 453.53 220.164 452.757 219.054C450.905 216.39 444.212 201.861 440.988 204.222C437.764 206.583 435.21 228.528 427.714 232.443C420.217 236.358 383.508 221.021 381.657 219.952" stroke="#20259D" stroke-width="1.99984" stroke-linecap="round" stroke-linejoin="round"/>
<path d="M455.655 130.224L455.076 174.941C455.076 174.941 459.022 181.419 460.965 190.863" stroke="#20259D" stroke-width="1.99984" stroke-linecap="round" stroke-linejoin="round"/>
<path d="M381.097 186.06L376.144 207.723" stroke="#20259D" stroke-width="1.99984" stroke-linecap="round" stroke-linejoin="round"/>
<path d="M378.809 219.831C378.809 219.831 378.605 273.639 383.61 320.244C383.61 320.244 378.371 330.969 380.823 336.63C383.274 342.29 379.928 424.653 379.907 427.649C379.887 430.646 376.479 434.157 380.202 436.821C383.915 439.495 386.743 442.34 398.664 441.18C410.585 440.029 417.227 431.08 417.227 431.08L423.828 341.16C423.828 341.16 427.104 330.243 424.998 326.348C422.893 322.453 435.861 248.798 435.861 248.798" stroke="#20259D" stroke-width="1.99984" stroke-linecap="round" stroke-linejoin="round"/>
<path d="M441.069 155.519C441.069 155.519 443.531 165.861 442.137 173.781" stroke="#20259D" stroke-width="1.99984" stroke-linecap="round" stroke-linejoin="round"/>
<path d="M459.612 154.721C459.612 154.721 469.641 151.614 468.289 153.722C466.936 155.831 460.233 161.209 465.441 160.715" stroke="#20259D" stroke-width="1.99984" stroke-linecap="round" stroke-linejoin="round"/>
<path d="M446.542 216.289C446.542 216.289 447.233 235.54 440.133 244.117L440.164 220.87" stroke="#20259D" stroke-width="1.99984" stroke-linecap="round" stroke-linejoin="round"/>
<path d="M438.648 209.135C438.648 209.135 442.646 209.135 445.158 207.047" stroke="#20259D" stroke-width="1.99984" stroke-linecap="round" stroke-linejoin="round"/>
<path d="M460.304 227.499C460.304 227.499 461.667 272.973 458.971 302.597C458.971 302.597 460.67 313.897 459.582 316.359C458.493 318.821 457.598 345.629 457.598 345.629L455.777 402.072C455.777 402.072 458.168 413.756 455.32 416.53C453.346 418.457 436.065 423.28 424.367 417.549C424.367 417.549 420.726 416.732 423.981 408.812C425.558 404.988 423.554 350.412 423.554 350.412" stroke="#20259D" stroke-width="1.99984" stroke-linecap="round" stroke-linejoin="round"/>
<path d="M415.569 440.867L426.829 471.116C426.829 471.116 431.315 477.765 427.531 485.141C427.531 485.141 422.414 491.195 410.717 486.342C399.01 481.498 387.678 463.155 385.329 454.67L385.695 440.645" stroke="#20259D" stroke-width="1.99984" stroke-linecap="round" stroke-linejoin="round"/>
<path d="M395.277 443.843C395.277 443.843 400.383 452.642 407.411 450.886C414.44 449.13 412.039 439.918 412.039 439.918" stroke="#20259D" stroke-width="1.99984" stroke-linecap="round" stroke-linejoin="round"/>
<path d="M443.683 185.827C443.694 184.262 442.915 182.987 441.943 182.98C440.971 182.973 440.174 184.237 440.163 185.803C440.152 187.369 440.931 188.644 441.903 188.65C442.875 188.657 443.671 187.393 443.683 185.827Z" stroke="#20259D" stroke-width="1.99984" stroke-linecap="round" stroke-linejoin="round"/>
<path d="M475.144 178.17C475.144 178.17 473.446 192.275 469.306 198.238" stroke="#20259D" stroke-width="1.99984" stroke-linecap="round" stroke-linejoin="round"/>
<path d="M423.625 145.348L448.79 108.48" stroke="#20259D" stroke-width="1.99984" stroke-linecap="round" stroke-linejoin="round"/>
<path d="M437.947 157.617L462.826 109.812" stroke="#20259D" stroke-width="1.99984" stroke-linecap="round" stroke-linejoin="round"/>
<path d="M463.162 111.931C463.162 111.931 479.427 102.951 479.833 93.8802C480.22 85.314 477.016 83.4474 477.016 83.4474C477.016 83.4474 472.947 80.7333 466.692 84.0427" stroke="#20259D" stroke-width="1.99984" stroke-linecap="round" stroke-linejoin="round"/>
<path d="M476.731 79.7343C476.731 79.7343 482.081 77.2119 482.193 75.0123C482.254 73.6502 472.439 74.1749 465.278 77.898C460.884 80.1783 457.751 85.3442 457.741 87.0191" stroke="#20259D" stroke-width="1.99984" stroke-linecap="round" stroke-linejoin="round"/>
<path d="M460.558 78.7858C460.558 78.7858 461.575 72.8833 459.175 72.7824C456.774 72.6815 456.286 79.028 454.659 82.63C453.031 86.2321 451.556 93.3655 451.638 95.1312" stroke="#20259D" stroke-width="1.99984" stroke-linecap="round" stroke-linejoin="round"/>
<path d="M464.413 74.4474L474.076 53.0874" stroke="#20259D" stroke-width="1.99984" stroke-linecap="round" stroke-linejoin="round"/>
<path d="M475.968 49.0414C475.968 49.0414 477.413 45.7925 482.031 47.4472C486.313 48.991 494.226 52.1592 494.226 52.1592C494.226 52.1592 498.62 53.6928 496.8 58.5258C493.931 66.194 482.163 90.8837 482.163 90.8837" stroke="#20259D" stroke-width="1.99984" stroke-linecap="round" stroke-linejoin="round"/>
<path d="M453.865 420.052C453.865 420.052 481.624 436.629 485.367 441.089C487.91 444.106 485.408 448 483.383 450.331C482.315 451.562 478.175 451.996 478.175 451.996L430.023 446.346C430.023 446.346 425.405 446.134 425.456 438.375" stroke="#20259D" stroke-width="1.99984" stroke-linecap="round" stroke-linejoin="round"/>
<path d="M426.219 430.797C426.219 430.273 427.368 419.517 427.368 419.517" stroke="#20259D" stroke-width="1.99984" stroke-linecap="round" stroke-linejoin="round"/>
<path d="M443.043 422.403C443.043 422.403 448.189 429.718 457.161 425.813" stroke="#20259D" stroke-width="1.99984" stroke-linecap="round" stroke-linejoin="round"/>
<path d="M465.97 193.254C465.97 193.254 468.685 194.102 466.02 200.378C463.121 207.188 458.931 211.032 457.669 210.861C456.256 210.669 454.72 210.407 458.544 200.882C462.369 191.357 465.97 193.264 465.97 193.264V193.254Z" stroke="#20259D" stroke-width="1.99984" stroke-linecap="round" stroke-linejoin="round"/>
<path d="M460.467 209.246C460.467 209.246 460.904 215.734 458.585 218.892C455.798 222.676 458.107 223.654 458.107 223.654C470.16 229.648 472.083 209.458 472.083 209.458C472.083 209.458 472.49 202.759 468.329 198.844" stroke="#20259D" stroke-width="1.99984" stroke-linecap="round" stroke-linejoin="round"/>
</g>
<defs>
<clipPath id="clip0_1101_21">
<rect width="334" height="361" fill="white" transform="translate(0 135)"/>
</clipPath>
<clipPath id="clip1_1101_21">
<rect width="128" height="489" fill="white" transform="translate(370)"/>
</clipPath>
</defs>
</svg>
