<svg width="215" height="458" viewBox="0 0 215 458" fill="none" xmlns="http://www.w3.org/2000/svg">
<g clip-path="url(#clip0_1098_16)">
<path d="M167.412 18.7493C167.412 18.7493 162.764 26.5472 143.946 0.368896C143.946 0.368896 159.949 23.1624 146.326 38.5417C132.703 53.921 96.0417 52.2876 99.6121 95.8033C99.6121 95.8033 100.261 101.368 107.724 99.075C113.762 97.2202 124.371 86.6082 131.634 76.0109L131.844 75.6518C133.785 75.9027 136.019 76.8227 137.892 79.2777C137.892 79.2777 140.648 70.4417 144.38 70.7713C148.111 71.101 151.028 58.9933 151.028 58.9933C151.028 58.9933 143.136 64.2624 137.473 65.9942L137.488 65.9745C145.897 49.0652 149.175 36.9477 158.008 30.5273C169.924 21.8635 167.417 18.7493 167.417 18.7493H167.412Z" fill="white"/>
<path d="M125.674 83.8089C125.674 83.8089 126.537 73.556 120.269 63.4114C120.269 62.9735 141.79 48.1403 146.545 41.2723C151.301 34.3993 152.925 32.1116 152.925 32.1116C152.925 32.1116 152.062 37.0215 150.116 39.201C148.17 41.3805 138.331 64.725 138.331 64.725L137.141 65.8172L134.112 66.688L127.517 75.7404L131.625 75.6322C131.625 75.6322 127.625 82.1755 125.679 83.8138L125.674 83.8089Z" fill="#20FFB3"/>
<path d="M137.488 65.9745C145.897 49.0652 149.175 36.9477 158.008 30.5273C169.924 21.8635 167.417 18.7493 167.417 18.7493C167.417 18.7493 162.769 26.5472 143.951 0.368896C143.951 0.368896 159.954 23.1624 146.331 38.5417C132.703 53.921 96.0417 52.2876 99.6121 95.8033C99.6121 95.8033 100.261 101.368 107.724 99.075C113.762 97.2202 124.371 86.6082 131.634 76.0109" stroke="#20259D" stroke-width="1.99984" stroke-linecap="round" stroke-linejoin="round"/>
<path d="M113.192 85.0536C114.18 85.0536 114.982 83.4214 114.982 81.408C114.982 79.3946 114.18 77.7625 113.192 77.7625C112.203 77.7625 111.402 79.3946 111.402 81.408C111.402 83.4214 112.203 85.0536 113.192 85.0536Z" fill="#20259D"/>
<path d="M127.186 76.1733C127.186 76.1733 133.512 73.556 137.892 79.2827C137.892 79.2827 140.648 70.4467 144.38 70.7763C148.111 71.1059 151.028 58.9983 151.028 58.9983C151.028 58.9983 139.024 67.0127 133.995 66.5256L127.181 76.1783L127.186 76.1733Z" stroke="#20259D" stroke-width="1.99984" stroke-linecap="round" stroke-linejoin="round"/>
<path d="M132.01 72.4934C132.01 72.4934 135.6 71.7801 138.58 72.7198" stroke="#20259D" stroke-width="1.99984" stroke-linecap="round" stroke-linejoin="round"/>
<path d="M133.878 69.7531C133.878 69.7531 136.8 68.5281 144.502 67.7507" stroke="#20259D" stroke-width="1.99984" stroke-linecap="round" stroke-linejoin="round"/>
<path d="M154.033 15.2317C154.033 15.2317 156.223 20.058 154.277 27.0933" stroke="#20259D" stroke-width="1.99984" stroke-linecap="round" stroke-linejoin="round"/>
<path d="M158.169 19.1577C158.169 19.1577 159.062 23.6544 157.437 26.1094" stroke="#20259D" stroke-width="1.99984" stroke-linecap="round" stroke-linejoin="round"/>
</g>
<path d="M119.437 326.419C101.545 317.261 88.5069 308.055 79.0078 299.457L78.9929 299.591L67.3335 287.183C67.3335 287.183 36.7662 256.358 58.205 185.848C58.205 185.848 65.2343 166.393 80.0197 158.342C97.9785 148.566 110.778 164.767 110.778 164.767C110.778 164.767 111.348 148.3 91.1455 139.79C77.3332 133.978 42.1346 116.309 41.8965 86.7253C41.8965 86.7253 38.4029 107.375 48.5082 128.604C58.6135 149.833 61.5081 166.708 43.4036 193.224C24.6826 220.638 2.71386 294.281 34.4605 362.06L34.8178 361.247C33.8813 364.103 32.3073 367.024 29.8226 369.809C18.3915 382.628 22.6922 406.777 32.8527 415.606C32.8527 415.606 36.2917 408.475 45.3722 415.117C51.3695 419.506 64.1202 443.504 82.2162 447.205C82.2162 447.205 62.5649 440.636 62.8896 401.647C63.0168 401.729 63.1446 401.805 63.2774 401.888L63.2563 402.077C63.2563 402.077 76.5078 433.983 131.892 442.021C131.892 442.021 149.906 444.775 160.931 450.887C160.931 450.887 171.709 455.842 176.389 444.34C181.07 432.839 186.979 360.981 119.437 326.419Z" fill="white"/>
<path d="M89.2348 343.348C89.2348 343.348 96.235 334.731 104.484 331.892C104.484 331.892 47.394 312.021 42.3982 268.633C36.6167 218.417 44.0641 209.455 44.0641 209.455C44.0641 209.455 15.8622 250.995 18.9523 299.47C21.2951 336.175 34.5278 362.067 34.5278 362.067C34.5278 362.067 38.4742 354.868 33.327 341.145C33.327 341.145 48.3008 360.469 55.8073 364.309C55.8073 364.309 62.0263 371.762 62.9143 402.294C62.9143 402.294 72.025 416.582 80.3595 422.017C80.3595 422.017 74.3753 398.811 74.4549 390.176C74.5344 381.542 73.4068 363.384 89.2292 343.348L89.2348 343.348Z" fill="#20FFB3"/>
<path d="M52.9861 121.272C52.9861 121.272 62.1492 126.047 63.0544 136.04C63.9596 146.032 61.5185 153.28 61.5185 153.28C61.5185 153.28 63.1376 133.044 52.9918 121.273L52.9861 121.272Z" fill="#20FFB3"/>
<path d="M70.1482 134.704C70.1482 134.704 74.4519 138.646 71.8053 146.362C69.1587 154.079 67.6831 152.18 67.6831 152.18C67.6831 152.18 70.5673 142.327 70.1538 134.705L70.1482 134.704Z" fill="#20FFB3"/>
<path d="M49.9193 379.37L56.367 419.915C56.367 419.915 48.5691 408.529 48.3765 396.672C48.1839 384.815 46.8149 385.228 49.9193 379.37Z" fill="#20FFB3"/>
<path d="M31.348 383.317L32.2077 402.761C32.2077 402.761 28.3913 396.326 31.348 383.317Z" fill="#20FFB3"/>
<path d="M40.1576 382.228C34.7433 396.095 41.0695 407.13 41.0695 407.13L40.1576 382.228Z" fill="#20FFB3"/>
<path d="M63.2563 402.077C63.2563 402.077 76.519 433.985 131.898 442.022C131.898 442.022 149.912 444.775 160.936 450.888C160.936 450.888 171.715 455.842 176.395 444.341C181.075 432.839 186.984 360.982 119.443 326.419C101.55 317.261 88.5125 308.056 79.0134 299.458" stroke="#20259D" stroke-width="2.00001" stroke-linecap="round" stroke-linejoin="round"/>
<path d="M67.3391 287.184C67.3391 287.184 36.7719 256.358 58.2106 185.848C58.2106 185.848 65.24 166.394 80.0254 158.343C97.9841 148.566 110.784 164.768 110.784 164.768C110.784 164.768 111.353 148.301 91.1512 139.79C77.3388 133.978 42.1459 116.31 41.9078 86.7266C41.9078 86.7266 38.4142 107.376 48.5195 128.606C58.6254 149.829 61.5193 166.709 43.4148 193.226C24.6938 220.64 2.71951 294.282 34.4661 362.061" stroke="#20259D" stroke-width="2.00001" stroke-linecap="round" stroke-linejoin="round"/>
<path d="M52.9728 120.83C52.9728 120.83 64.4497 139.325 61.472 152.524" stroke="#20259D" stroke-width="2.00001" stroke-linecap="round" stroke-linejoin="round"/>
<path d="M69.5992 134.892C69.5992 134.892 70.7376 142.786 67.386 152.554" stroke="#20259D" stroke-width="2.00001" stroke-linecap="round" stroke-linejoin="round"/>
<path d="M74.229 154.445C74.229 154.445 77.6264 149.936 78.4923 142.146" stroke="#20259D" stroke-width="2.00001" stroke-linecap="round" stroke-linejoin="round"/>
<path d="M33.3602 341.459C33.3602 341.459 41.2649 356.992 29.8282 369.81C18.3971 382.629 22.6978 406.777 32.8583 415.607C32.8583 415.607 36.2974 408.475 45.3779 415.117C51.3752 419.507 64.1258 443.504 82.2219 447.205C82.2219 447.205 62.012 440.45 62.9224 399.973C62.9224 399.973 63.2618 378.221 55.7326 364.419" stroke="#20259D" stroke-width="2.00001" stroke-linecap="round" stroke-linejoin="round"/>
<path d="M49.4203 379.874C49.4203 379.874 42.8528 400.436 56.5112 420.304" stroke="#20259D" stroke-width="2.00001" stroke-linecap="round" stroke-linejoin="round"/>
<path d="M40.4941 380.888C40.4941 380.888 33.8139 393.421 41.2886 407.714" stroke="#20259D" stroke-width="2.00001" stroke-linecap="round" stroke-linejoin="round"/>
<path d="M31.9099 381.685C31.9099 381.685 26.7355 394.261 32.4806 403.73" stroke="#20259D" stroke-width="2.00001" stroke-linecap="round" stroke-linejoin="round"/>
<path d="M77.9131 411.226C77.9131 411.226 64.5854 373.109 89.4813 342.816" stroke="#20259D" stroke-width="2.00001" stroke-linecap="round" stroke-linejoin="round"/>
<path d="M115.049 406.711C117.432 406.975 119.764 403.582 120.259 399.132C120.754 394.682 119.223 390.859 116.841 390.595C114.458 390.33 112.126 393.723 111.631 398.173C111.137 402.623 112.667 406.446 115.049 406.711Z" fill="#20259D"/>
<defs>
<clipPath id="clip0_1098_16">
<rect width="69" height="100" fill="white" transform="translate(99)"/>
</clipPath>
</defs>
</svg>
