<?xml version="1.0" encoding="utf-8"?>
<!-- Generator: Adobe Illustrator 27.5.0, SVG Export Plug-In . SVG Version: 6.00 Build 0)  -->
<svg version="1.1" id="レイヤー_1" xmlns="http://www.w3.org/2000/svg" xmlns:xlink="http://www.w3.org/1999/xlink" x="0px"
	 y="0px" viewBox="0 0 74 53" style="enable-background:new 0 0 74 53;" xml:space="preserve">
<style type="text/css">
	.st0{fill:url(#SVGID_1_);enable-background:new    ;}
</style>
<linearGradient id="SVGID_1_" gradientUnits="userSpaceOnUse" x1="-5" y1="27.6299" x2="81" y2="27.6299" gradientTransform="matrix(1 0 0 -1 0 54.5039)">
	<stop  offset="0" style="stop-color:#B196FF"/>
	<stop  offset="1" style="stop-color:#B8E7FF"/>
</linearGradient>
<path class="st0" d="M18,53C7.7,53,0.9,44,0.9,26.6C0.9,9.3,7.7,0.8,18,0.8c10.2,0,17,8.5,17,25.8C35,44,28.2,53,18,53z M18,45.1
	c4.4,0,7.5-4.4,7.5-18.5c0-14.1-3.2-18.2-7.5-18.2s-7.6,4.1-7.6,18.2C10.3,40.8,13.6,45.1,18,45.1z M43.5,52v-8.1h10.9V12.1h-9.2
	V5.9c5.1-1,8.5-2.2,11.8-4.2h7.4v42.2h9.5V52H43.5z"/>
</svg>
